<svg width="26" height="26" viewBox="0 0 26 26" fill="none" xmlns="http://www.w3.org/2000/svg">
<mask id="mask0_32_406" style="mask-type:luminance" maskUnits="userSpaceOnUse" x="0" y="0" width="13" height="12">
<path d="M12.13 0H0V11.99H12.13V0Z" fill="white"/>
</mask>
<g mask="url(#mask0_32_406)">
<path d="M3.09 0H8.5C8.91 0 9.3 0.0799995 9.68 0.23C10.06 0.39 10.39 0.610002 10.68 0.900002C10.97 1.19 11.2 1.52 11.35 1.9C11.5 2.28 11.58 2.67 11.58 3.08V8.49C11.58 8.9 11.5 9.3 11.35 9.67C11.19 10.05 10.97 10.38 10.68 10.68C10.39 10.98 10.05 11.19 9.68 11.35C9.3 11.51 8.9 11.58 8.5 11.58H3.09C2.68 11.58 2.28 11.5 1.91 11.35C1.53 11.19 1.19999 10.97 0.899994 10.68C0.609994 10.39 0.389996 10.05 0.229996 9.67C0.0699957 9.29 0 8.9 0 8.49V3.08C0 2.67 0.0799957 2.28 0.229996 1.9C0.389996 1.52 0.609994 1.19 0.899994 0.900002C1.18999 0.610002 1.53 0.38 1.91 0.23C2.29 0.0699995 2.68 0 3.09 0Z" fill="#FDFDFD"/>
</g>
<mask id="mask1_32_406" style="mask-type:luminance" maskUnits="userSpaceOnUse" x="12" y="0" width="14" height="13">
<path d="M25.1202 0.439941H12.2402V12.4299H25.1202V0.439941Z" fill="white"/>
</mask>
<g mask="url(#mask1_32_406)">
<path d="M16.34 0.439941H21.75C22.16 0.439941 22.55 0.519941 22.93 0.669941C23.31 0.819941 23.64 1.04994 23.94 1.33994C24.24 1.62994 24.45 1.95994 24.61 2.33994C24.77 2.71994 24.84 3.10994 24.84 3.51994V8.92994C24.84 9.33994 24.76 9.73994 24.61 10.1099C24.45 10.4899 24.23 10.8199 23.94 11.1199C23.65 11.4099 23.31 11.6299 22.93 11.7899C22.55 11.9499 22.16 12.0199 21.75 12.0199H16.34C15.93 12.0199 15.54 11.9399 15.16 11.7899C14.78 11.6399 14.45 11.4099 14.15 11.1199C13.86 10.8299 13.64 10.4899 13.48 10.1099C13.32 9.72994 13.25 9.33994 13.25 8.92994V3.51994C13.25 3.10994 13.33 2.71994 13.48 2.33994C13.63 1.95994 13.86 1.62994 14.15 1.33994C14.44 1.04994 14.78 0.819941 15.16 0.669941C15.54 0.519941 15.93 0.439941 16.34 0.439941Z" fill="#FDFDFD"/>
</g>
<mask id="mask2_32_406" style="mask-type:luminance" maskUnits="userSpaceOnUse" x="0" y="12" width="13" height="14">
<path d="M12.2501 12.4302H0.120117V25.4402H12.2501V12.4302Z" fill="white"/>
</mask>
<g mask="url(#mask2_32_406)">
<path d="M3.21011 13.5703H8.62012C9.03012 13.5703 9.42012 13.6503 9.80012 13.8003C10.1801 13.9603 10.5101 14.1803 10.8001 14.4703C11.0901 14.7603 11.3201 15.1003 11.4701 15.4703C11.6301 15.8503 11.7001 16.2503 11.7001 16.6503V22.0603C11.7001 22.4703 11.6201 22.8603 11.4701 23.2403C11.3101 23.6203 11.0901 23.9503 10.8001 24.2403C10.5101 24.5303 10.1701 24.7603 9.80012 24.9103C9.42012 25.0703 9.02012 25.1403 8.62012 25.1403H3.21011C2.80011 25.1403 2.40011 25.0603 2.03011 24.9103C1.65011 24.7503 1.32011 24.5303 1.02011 24.2403C0.720111 23.9503 0.510113 23.6103 0.350113 23.2403C0.190113 22.8603 0.120117 22.4603 0.120117 22.0603V16.6503C0.120117 16.2403 0.200113 15.8503 0.350113 15.4703C0.510113 15.0903 0.730111 14.7603 1.02011 14.4703C1.31011 14.1803 1.65011 13.9503 2.03011 13.8003C2.41011 13.6403 2.80011 13.5703 3.21011 13.5703Z" fill="#FDFDFD"/>
</g>
<mask id="mask3_32_406" style="mask-type:luminance" maskUnits="userSpaceOnUse" x="12" y="12" width="14" height="14">
<path d="M25.1202 12.4302H12.2402V25.4402H25.1202V12.4302Z" fill="white"/>
</mask>
<g mask="url(#mask3_32_406)">
<path d="M16.34 13.5703H21.75C22.16 13.5703 22.55 13.6503 22.93 13.8003C23.31 13.9503 23.64 14.1803 23.94 14.4703C24.24 14.7603 24.45 15.1003 24.61 15.4703C24.77 15.8503 24.84 16.2503 24.84 16.6503V22.0603C24.84 22.4703 24.76 22.8603 24.61 23.2403C24.45 23.6203 24.23 23.9503 23.94 24.2403C23.65 24.5303 23.31 24.7603 22.93 24.9103C22.55 25.0603 22.16 25.1403 21.75 25.1403H16.34C15.93 25.1403 15.54 25.0603 15.16 24.9103C14.78 24.7603 14.45 24.5303 14.15 24.2403C13.86 23.9503 13.64 23.6103 13.48 23.2403C13.32 22.8603 13.25 22.4603 13.25 22.0603V16.6503C13.25 16.2403 13.33 15.8503 13.48 15.4703C13.64 15.0903 13.86 14.7603 14.15 14.4703C14.44 14.1803 14.78 13.9503 15.16 13.8003C15.54 13.6503 15.93 13.5703 16.34 13.5703Z" fill="#FDFDFD"/>
</g>
</svg>
