<svg width="30" height="33" viewBox="0 0 30 33" fill="none" xmlns="http://www.w3.org/2000/svg">
<mask id="mask0_33_409" style="mask-type:luminance" maskUnits="userSpaceOnUse" x="2" y="0" width="28" height="27">
<path d="M29.2702 0.77002H2.24023V26.43H29.2702V0.77002Z" fill="white"/>
</mask>
<g mask="url(#mask0_33_409)">
<path d="M28.8102 12.4902L25.9302 9.61023C25.7902 9.47023 25.6202 9.41022 25.4202 9.41022C25.2202 9.41022 25.0602 9.48024 24.9202 9.62024C24.7802 9.76024 24.7202 9.92024 24.7102 10.1202C24.7102 10.3102 24.7802 10.4802 24.9102 10.6202L26.5502 12.2803H21.8202V1.50024C21.8202 1.30024 21.7502 1.13023 21.6102 0.990234C21.4702 0.850234 21.3002 0.780273 21.1002 0.780273H3.49023L10.9802 7.03027C11.5002 7.46027 11.7602 8.01025 11.7602 8.69025V25.2202H21.1002C21.3002 25.2202 21.4702 25.1503 21.6102 25.0103C21.7502 24.8703 21.8202 24.7002 21.8202 24.5002V15.1602H16.7902C16.5902 15.1602 16.4202 15.0903 16.2802 14.9503C16.1402 14.8103 16.0702 14.6402 16.0702 14.4402C16.0702 14.2402 16.1402 14.0702 16.2802 13.9302C16.4202 13.7902 16.5902 13.7202 16.7902 13.7202H26.5502L24.9102 15.3702C24.7702 15.5102 24.7102 15.6802 24.7102 15.8702C24.7102 16.0702 24.7802 16.2302 24.9202 16.3702C25.0602 16.5102 25.2302 16.5803 25.4202 16.5803C25.6102 16.5803 25.7802 16.5102 25.9302 16.3802L28.8102 13.5002C28.9502 13.3602 29.0202 13.2002 29.0202 13.0002C29.0202 12.8002 28.9502 12.6302 28.8102 12.4902Z" fill="#FDFDFD"/>
</g>
<mask id="mask1_33_409" style="mask-type:luminance" maskUnits="userSpaceOnUse" x="0" y="0" width="12" height="33">
<path d="M11.5803 0.77002H0.280273V32.77H11.5803V0.77002Z" fill="white"/>
</mask>
<g mask="url(#mask1_33_409)">
<path d="M1.45051 0.950069C1.22051 0.750069 0.970514 0.720032 0.690514 0.850032C0.410514 0.980032 0.270508 1.19006 0.270508 1.50006V24.5001C0.270508 24.7201 0.36051 24.91 0.53051 25.05L9.16051 32.24C9.29051 32.35 9.45051 32.41 9.62051 32.41C9.82051 32.41 9.99051 32.3401 10.1305 32.2001C10.2705 32.0601 10.3405 31.8901 10.3405 31.6901V8.69006C10.3405 8.47006 10.2505 8.28007 10.0805 8.14007L1.45051 0.950069Z" fill="#FDFDFD"/>
</g>
</svg>
