<svg width="34" height="34" viewBox="0 0 34 34" fill="none" xmlns="http://www.w3.org/2000/svg">
<g filter="url(#filter0_d_20_444)">
<mask id="mask0_20_444" style="mask-type:luminance" maskUnits="userSpaceOnUse" x="4" y="0" width="26" height="26">
<path d="M29.2803 0.600098H4.28027V25.6001H29.2803V0.600098Z" fill="white"/>
</mask>
<g mask="url(#mask0_20_444)">
<path d="M28.17 0.600098H23.74C23.26 0.600098 22.86 1.0001 22.86 1.4901V23.6201H19.76V9.4601C19.76 8.9701 19.36 8.5701 18.87 8.5701H14.44C13.95 8.5701 13.55 8.9701 13.55 9.4601V23.6201H10.46V17.4301C10.46 16.9401 10.06 16.5401 9.57 16.5401H5.14C4.65 16.5401 4.25 16.9401 4.25 17.4301V24.5101C4.25 25.0001 4.65 25.4001 5.14 25.4001H28.15C28.64 25.4001 29.04 25.0001 29.04 24.5101V1.50009C29.04 1.01009 28.64 0.610092 28.15 0.610092L28.17 0.600098ZM6.04 23.6101V18.3001H8.7V23.6101H6.04ZM15.33 23.6101V10.3301H17.99V23.6101H15.33ZM24.62 23.6101V2.37009H27.28V23.6101H24.62Z" fill="#FDFDFD"/>
</g>
</g>
<defs>
<filter id="filter0_d_20_444" x="0.280273" y="0.600098" width="32.7598" height="32.7998" filterUnits="userSpaceOnUse" color-interpolation-filters="sRGB">
<feFlood flood-opacity="0" result="BackgroundImageFix"/>
<feColorMatrix in="SourceAlpha" type="matrix" values="0 0 0 0 0 0 0 0 0 0 0 0 0 0 0 0 0 0 127 0" result="hardAlpha"/>
<feOffset dy="4"/>
<feGaussianBlur stdDeviation="2"/>
<feComposite in2="hardAlpha" operator="out"/>
<feColorMatrix type="matrix" values="0 0 0 0 0 0 0 0 0 0 0 0 0 0 0 0 0 0 0.25 0"/>
<feBlend mode="normal" in2="BackgroundImageFix" result="effect1_dropShadow_20_444"/>
<feBlend mode="normal" in="SourceGraphic" in2="effect1_dropShadow_20_444" result="shape"/>
</filter>
</defs>
</svg>
