<svg width="25" height="27" viewBox="0 0 25 27" fill="none" xmlns="http://www.w3.org/2000/svg">
<mask id="mask0_33_411" style="mask-type:luminance" maskUnits="userSpaceOnUse" x="0" y="0" width="25" height="27">
<path d="M25 0H0V26.77H25V0Z" fill="white"/>
</mask>
<g mask="url(#mask0_33_411)">
<path d="M0.990413 26.7099C0.730413 26.7099 0.520412 26.6199 0.340412 26.4399C0.160412 26.2599 0.0704074 26.0399 0.0704074 25.7899V12.6899C0.0604074 11.9199 0.120408 11.1499 0.250408 10.3999C0.380408 9.63988 0.580414 8.90988 0.850414 8.17988C1.13041 7.45988 1.46041 6.76989 1.87041 6.11988C2.27041 5.45989 2.73041 4.84987 3.25041 4.27987C3.77041 3.70987 4.34041 3.19988 4.95041 2.73988C5.57041 2.27988 6.22041 1.87988 6.91041 1.54988C7.60041 1.20988 8.32041 0.94988 9.06041 0.73988C9.80041 0.53988 10.5604 0.409881 11.3304 0.349881C12.0804 0.309881 12.8204 0.329883 13.5604 0.429883C14.3004 0.519883 15.0304 0.689873 15.7404 0.919873C16.4504 1.14987 17.1404 1.44987 17.7904 1.80987C18.4404 2.16987 19.0604 2.58988 19.6404 3.06988C20.2104 3.53988 20.7404 4.06988 21.2204 4.64988C21.6904 5.22988 22.1204 5.83987 22.4804 6.49987C22.8404 7.14987 23.1404 7.83988 23.3704 8.54988C23.6004 9.25988 23.7704 9.98989 23.8704 10.7299C23.9704 11.4699 24.0004 12.2099 23.9504 12.9599C23.9104 13.6999 23.7904 14.4399 23.6204 15.1699C23.4404 15.8999 23.1904 16.5999 22.8804 17.2799C22.5604 17.9599 22.1904 18.5999 21.7504 19.2099C21.3204 19.8199 20.8304 20.3899 20.2904 20.8999C19.7504 21.4199 19.1604 21.8799 18.5404 22.2999C17.9104 22.7099 17.2504 23.0599 16.5604 23.3399C15.8704 23.6199 15.1504 23.8399 14.4204 23.9999C12.4804 24.3999 10.5604 24.3199 8.65041 23.7599C7.64041 23.4899 6.68041 23.6199 5.78041 24.1499L1.40041 26.5799C1.26041 26.6499 1.11041 26.6899 0.960414 26.6899L0.990413 26.7099ZM11.4404 2.18988C10.7904 2.23988 10.1504 2.34988 9.52041 2.51988C8.89041 2.68988 8.29041 2.91988 7.70041 3.20988C7.11041 3.49988 6.56041 3.83989 6.04041 4.22989C5.52041 4.61989 5.03041 5.05988 4.60041 5.53988C4.17041 6.01988 3.77041 6.54988 3.43041 7.09988C3.09041 7.65988 2.80041 8.24988 2.58041 8.85988C2.35041 9.46988 2.18041 10.0999 2.07041 10.7399C1.96041 11.3899 1.91041 12.0299 1.92041 12.6899V24.2299L4.93041 22.5599C6.29041 21.7799 7.72041 21.5999 9.23041 22.0099C10.8304 22.4799 12.4604 22.5499 14.1104 22.2099C14.7304 22.0799 15.3304 21.8899 15.9204 21.6499C16.5104 21.4099 17.0704 21.1099 17.6004 20.7699C18.1304 20.4199 18.6304 20.0299 19.0804 19.5899C19.5404 19.1499 19.9504 18.6699 20.3204 18.1599C20.6804 17.6399 21.0004 17.0999 21.2704 16.5199C21.5304 15.9499 21.7404 15.3499 21.9004 14.7299C22.0504 14.1199 22.1404 13.4999 22.1804 12.8599C22.2204 12.2299 22.1904 11.5899 22.1104 10.9699C22.0304 10.3399 21.8904 9.72989 21.6904 9.11989C21.4904 8.51989 21.2404 7.93987 20.9304 7.38987C20.6204 6.83987 20.2604 6.31988 19.8604 5.82988C19.4604 5.34988 19.0104 4.89987 18.5204 4.49987C18.0304 4.08987 17.5104 3.73988 16.9504 3.43988C16.4004 3.12988 15.8204 2.87988 15.2204 2.67988C14.6204 2.47988 14.0004 2.33988 13.3704 2.25988C12.7404 2.17988 12.1104 2.15988 11.4804 2.18988H11.4404Z" fill="#FDFDFD"/>
</g>
<path d="M13.1805 12.1302C13.1805 12.4702 13.0605 12.7602 12.8205 13.0002C12.5805 13.2402 12.2905 13.3602 11.9505 13.3602C11.6105 13.3602 11.3205 13.2402 11.0905 13.0002C10.8605 12.7602 10.7305 12.4702 10.7305 12.1302C10.7305 11.7902 10.8505 11.5002 11.0905 11.2702C11.3305 11.0402 11.6205 10.9102 11.9505 10.9102C12.2805 10.9102 12.5805 11.0302 12.8205 11.2702C13.0605 11.5102 13.1805 11.8002 13.1805 12.1302Z" fill="#FDFDFD"/>
<path d="M8.45 12.22C8.45 12.56 8.33 12.85 8.09 13.09C7.85 13.33 7.55999 13.45 7.21999 13.45C6.87999 13.45 6.58999 13.33 6.35999 13.09C6.12999 12.85 6 12.56 6 12.22C6 11.88 6.11999 11.59 6.35999 11.36C6.59999 11.13 6.88999 11 7.21999 11C7.54999 11 7.85 11.12 8.09 11.36C8.33 11.6 8.45 11.89 8.45 12.22Z" fill="#FDFDFD"/>
<path d="M18.1609 12.3001C18.1609 12.6401 18.0409 12.9301 17.8009 13.1701C17.5609 13.4101 17.2709 13.5301 16.9409 13.5301C16.6109 13.5301 16.3109 13.4101 16.0709 13.1701C15.8309 12.9301 15.7109 12.6401 15.7109 12.3001C15.7109 11.9601 15.8309 11.6701 16.0709 11.4401C16.3109 11.2101 16.6009 11.0801 16.9409 11.0801C17.2809 11.0801 17.5709 11.2001 17.8009 11.4401C18.0309 11.6801 18.1609 11.9701 18.1609 12.3001Z" fill="#FDFDFD"/>
</svg>
