<svg width="30" height="30" viewBox="0 0 30 30" fill="none" xmlns="http://www.w3.org/2000/svg">
<mask id="mask0_20_459" style="mask-type:luminance" maskUnits="userSpaceOnUse" x="0" y="0" width="30" height="30">
<path d="M29.1001 0.930176H0.370117V29.6802H29.1001V0.930176Z" fill="white"/>
</mask>
<g mask="url(#mask0_20_459)">
<path d="M14.6503 9.84033C17.6403 9.78033 20.1003 12.1603 20.1603 15.1503V15.3103C20.1903 18.3003 17.8003 20.7503 14.8103 20.7803C11.8203 20.8103 9.37031 18.4203 9.34031 15.4303V15.3103C9.31031 12.3403 11.6803 9.89033 14.6503 9.84033ZM15.2303 0.940307C14.4203 0.910307 13.6203 0.950303 12.8203 1.0603C12.5303 1.1003 12.3003 1.29031 12.2203 1.57031L11.4203 4.16031C11.3503 4.38031 11.1903 4.56031 10.9703 4.63031C10.5903 4.77031 10.2303 4.9203 9.87031 5.0903C9.66031 5.1903 9.41031 5.18031 9.21031 5.07031L6.81031 3.80029C6.56031 3.67029 6.25031 3.7003 6.03031 3.8703C5.00031 4.6503 4.09031 5.5603 3.31031 6.5903C3.13031 6.8103 3.11031 7.1203 3.24031 7.3703L4.51031 9.77032C4.62031 9.97032 4.63031 10.2203 4.54031 10.4303C4.37031 10.7903 4.22031 11.1603 4.08031 11.5303C4.00031 11.7503 3.83031 11.9203 3.61031 11.9803L1.02031 12.7803C0.750307 12.8603 0.550312 13.0903 0.510312 13.3703C0.340312 14.6503 0.340312 15.9403 0.510312 17.2203C0.550312 17.5003 0.740307 17.7403 1.02031 17.8203L3.61031 18.6203C3.83031 18.6903 4.01031 18.8603 4.08031 19.0803C4.22031 19.4603 4.37031 19.8203 4.54031 20.1803C4.63031 20.3903 4.62031 20.6403 4.51031 20.8403L3.24031 23.2403C3.10031 23.5003 3.13031 23.8003 3.31031 24.0303C4.09031 25.0503 5.00031 25.9703 6.03031 26.7503C6.25031 26.9203 6.56031 26.9503 6.81031 26.8203L9.21031 25.5503C9.41031 25.4403 9.66031 25.4303 9.87031 25.5303C10.2303 25.7003 10.5903 25.8503 10.9703 25.9803C11.1903 26.0603 11.3603 26.2403 11.4203 26.4503L12.2203 29.0403C12.3103 29.3103 12.5403 29.5103 12.8203 29.5503C14.1003 29.7303 15.3903 29.7303 16.6603 29.5503C16.9403 29.5203 17.1803 29.3203 17.2603 29.0403L18.0603 26.4503C18.1303 26.2303 18.3003 26.0503 18.5103 25.9803C18.8903 25.8503 19.2503 25.6903 19.6103 25.5303C19.8203 25.4303 20.0603 25.4303 20.2703 25.5503L22.6703 26.8203C22.9303 26.9503 23.2303 26.9203 23.4603 26.7503C24.4903 25.9703 25.4003 25.0503 26.1803 24.0303C26.3503 23.8003 26.3803 23.5003 26.2503 23.2403L24.9803 20.8403C24.8703 20.6403 24.8603 20.4003 24.9503 20.1803C25.1203 19.8203 25.2703 19.4603 25.4003 19.0803C25.4803 18.8603 25.6603 18.6903 25.8803 18.6203L28.4703 17.8203C28.7403 17.7403 28.9403 17.5003 28.9803 17.2203C29.1503 15.9403 29.1503 14.6503 28.9803 13.3703C28.9403 13.0903 28.7403 12.8503 28.4703 12.7803L25.8803 11.9803C25.6603 11.9203 25.4803 11.7503 25.4003 11.5303C25.2703 11.1503 25.1203 10.7903 24.9503 10.4303C24.8603 10.2203 24.8603 9.98032 24.9803 9.77032L26.2503 7.3703C26.3803 7.1203 26.3503 6.8103 26.1803 6.5903C25.4003 5.5603 24.4903 4.6503 23.4603 3.8703C23.2303 3.7003 22.9303 3.67029 22.6703 3.80029L20.2703 5.07031C20.0703 5.18031 19.8203 5.1803 19.6103 5.0903C19.2503 4.9203 18.8803 4.77031 18.5103 4.63031C18.3003 4.56031 18.1203 4.38031 18.0603 4.16031L17.2603 1.57031C17.1803 1.29031 16.9403 1.1003 16.6603 1.0603C16.1903 1.0003 15.7103 0.960307 15.2303 0.940307Z" fill="#FDFDFD"/>
</g>
</svg>
