<?xml version="1.0" encoding="utf-8"?>
<!-- Generator: Adobe Illustrator 25.2.0, SVG Export Plug-In . SVG Version: 6.00 Build 0)  -->
<svg version="1.1" id="katman_1" xmlns="http://www.w3.org/2000/svg" xmlns:xlink="http://www.w3.org/1999/xlink" x="0px" y="0px"
	 viewBox="0 0 560 400" style="enable-background:new 0 0 560 400;" xml:space="preserve">
<style type="text/css">
	.st0{fill:#015A75;}
</style>
<path class="st0" d="M333.71,226.31h-113.9l-4.14,13.61h30.35l5.8,18.78h49.9l5.77-18.78h30.35L333.71,226.31z M238.4,149.82
	c-3.33,4.6-5.13,10.13-5.13,15.81c0,8.62,4.14,16.74,11.12,21.79l27.25,19.8c1.75,1.27,2.79,3.3,2.79,5.46
	c0,1.42-0.45,2.81-1.29,3.96l4.1,2.97l14.4-19.9c3.34-4.58,5.13-10.09,5.14-15.76c0-1.44-0.11-2.87-0.34-4.29
	c-1.12-7.05-5.02-13.36-10.81-17.53l-27.25-19.8c-1.45-1.05-2.42-2.63-2.7-4.39c-0.06-0.36-0.09-0.72-0.09-1.08
	c0-1.41,0.45-2.79,1.28-3.94l-4.1-2.98L238.4,149.82z M254.82,70.21c-4.84,6.64-7.45,14.64-7.44,22.85c0,2.08,0.17,4.16,0.49,6.22
	c1.61,10.23,7.25,19.4,15.65,25.45l34.26,24.81c4.5,3.25,7.53,8.17,8.39,13.65c0.18,1.1,0.26,2.21,0.27,3.32
	c-0.01,4.41-1.42,8.7-4.03,12.25l3.31,2.41l27-37.31c4.83-6.66,7.44-14.69,7.44-22.92c0-12.5-6.01-24.27-16.13-31.61l-41.37-30.07
	c-5.34-3.89-6.54-11.48-2.66-16.82l-3.31-2.38L254.82,70.21z M184.84,270.07h31.21c7.68,0,13.71,2.11,17.57,5.95
	c3.06,3,4.72,7.15,4.6,11.43v0.16c0,7.59-4.03,11.81-8.87,14.51c7.77,2.98,12.58,7.49,12.58,16.52v0.19
	c0,12.29-9.98,18.43-25.16,18.43h-31.93V270.07z M212.88,297.25c6.53,0,10.66-2.11,10.66-7.1v-0.19c0-4.42-3.46-6.91-9.68-6.91
	h-14.62v14.21H212.88z M216.81,324.33c6.53,0,10.48-2.31,10.48-7.26v-0.19c0-4.52-3.36-7.26-10.95-7.26h-17.1v14.78L216.81,324.33z
	 M248.4,270.07h31.21c7.68,0,13.71,2.11,17.57,5.95c3.05,3.01,4.71,7.15,4.59,11.43v0.16c0,7.59-4.03,11.81-8.87,14.51
	c7.78,2.98,12.58,7.49,12.58,16.52v0.19c0,12.29-9.98,18.43-25.16,18.43H248.4V270.07z M276.43,297.25c6.53,0,10.66-2.11,10.66-7.1
	v-0.19c0-4.42-3.46-6.91-9.68-6.91H262.8v14.21H276.43z M280.37,324.33c6.53,0,10.48-2.31,10.48-7.26v-0.19
	c0-4.52-3.36-7.26-10.94-7.26h-17.1v14.78L280.37,324.33z M311.96,270.07h31.21c7.68,0,13.71,2.11,17.57,5.95
	c3.05,3,4.72,7.15,4.6,11.43v0.16c0,7.59-4.03,11.81-8.87,14.51c7.78,2.98,12.58,7.49,12.58,16.52v0.19
	c0,12.29-9.99,18.43-25.16,18.43h-31.93V270.07z M340,297.25c6.53,0,10.66-2.11,10.66-7.1v-0.19c0-4.42-3.46-6.91-9.68-6.91h-14.6
	v14.21H340z M343.93,324.33c6.53,0,10.48-2.31,10.48-7.26v-0.19c0-4.52-3.36-7.26-10.95-7.26h-17.09v14.78L343.93,324.33z
	 M372.21,323.24v-0.07c0-0.01,0-0.02,0-0.04c0-7.52,6.19-13.71,13.71-13.71c7.51,0,13.69,6.17,13.71,13.67v0.07v0.04
	c0,7.52-6.19,13.71-13.71,13.71C378.41,336.91,372.23,330.74,372.21,323.24z M398.01,323.16v-0.07c-0.02-6.62-5.47-12.06-12.1-12.06
	c-6.64,0-12.1,5.46-12.1,12.1v0.04v0.07c0.02,6.62,5.47,12.06,12.1,12.06c6.64,0,12.1-5.46,12.1-12.1
	C398.01,323.19,398.01,323.18,398.01,323.16z M380.27,315.49h6.45c1.66-0.09,3.28,0.49,4.5,1.61c0.81,0.85,1.25,2,1.21,3.18v0.07
	c0.09,2.03-1.21,3.88-3.14,4.5l3.56,5.22h-3.75l-3.1-4.69h-2.53v4.69h-3.23L380.27,315.49z M386.73,322.6c1.61,0,2.5-0.87,2.5-2.08
	v-0.07c0-1.39-0.98-2.12-2.57-2.12h-3.14v4.27H386.73z"/>
</svg>
