<?xml version="1.0" encoding="utf-8"?>
<!-- Generator: Adobe Illustrator 25.0.1, SVG Export Plug-In . SVG Version: 6.00 Build 0)  -->
<svg version="1.0" id="katman_1" xmlns="http://www.w3.org/2000/svg" xmlns:xlink="http://www.w3.org/1999/xlink" x="0px" y="0px"
	 viewBox="0 0 600 400" style="enable-background:new 0 0 600 400;" xml:space="preserve">
<style type="text/css">
	.st0{clip-path:url(#SVGID_2_);fill:#FF1A1A;}
	.st1{clip-path:url(#SVGID_2_);fill-rule:evenodd;clip-rule:evenodd;}
</style>
<g>
	<g>
		<defs>
			<rect id="SVGID_1_" x="57" y="107.3" width="486" height="186.3"/>
		</defs>
		<clipPath id="SVGID_2_">
			<use xlink:href="#SVGID_1_"  style="overflow:visible;"/>
		</clipPath>
		<path class="st0" d="M447.2,215.2l7.9-1.8c0.3-0.1,0.5-0.1,0.8-0.2c4.5-1.2,7.3-5.8,6.2-10.3l-0.1-0.1c-0.3-1-0.7-2.1-1.3-2.9
			c-0.9-1.1-2-2-3.2-2.8c-1.5-0.8-3-1.5-4.6-2.1l-8.6-3.2c-4.8-1.8-9.7-3.5-14.6-5.2c-3.2-1.1-5.9-2.1-8.2-2.9
			c-0.4-0.1-0.9-0.3-1.3-0.4c-2.8-0.9-4.8-1.2-6.5-1.2c-1.1,0-2.2,0.2-3.3,0.6c-1.1,0.5-2.1,1.2-2.9,2c-0.4,0.4-0.8,0.9-1.1,1.4
			c-0.7,1-1.2,2.2-1.6,3.3c-1.6,4.7-2.4,9.7-2.4,14.7c0,4.5,0.2,10.3,2.7,14.3c0.6,1,1.4,1.9,2.3,2.5c1.8,1.2,3.6,1.4,5.4,1.5
			c2.7,0.2,5.4-0.5,8.1-1.1L447.2,215.2z M535,173.4c-2.2-4.5-5-8.6-8.5-12.2c-0.5-0.4-0.9-0.9-1.5-1.2c-0.5-0.4-1-0.7-1.5-1
			c-0.5-0.3-1.1-0.5-1.6-0.8c-1.1-0.4-2.3-0.6-3.5-0.6c-1.1,0.1-2.2,0.4-3.2,0.9c-1.5,0.8-3.1,2-5.3,4c-0.3,0.3-0.7,0.6-1,0.9
			c-1.8,1.7-3.8,3.8-6.1,6.2c-3.6,3.7-7.2,7.4-10.8,11.1l-6.4,6.6c-1.2,1.2-2.2,2.5-3.2,3.9c-0.8,1.2-1.4,2.5-1.7,3.9
			c-0.2,1.1-0.2,2.2,0.1,3.2l0.1,0.1c1,4.6,5.5,7.5,10.1,6.6c0.3-0.1,0.6-0.1,0.8-0.2l34-7.9c2.7-0.6,5.4-1.2,7.8-2.6
			c1.6-0.9,3.2-1.9,4.2-3.8c0.6-1,0.9-2.2,1-3.3C539.3,182.7,536.9,177.5,535,173.4L535,173.4z M474.1,187.7
			c2.5-3.1,2.5-7.7,2.7-11.5c0.7-12.6,1.5-25.2,2.1-37.9c0.3-4.7,0.8-9.5,0.5-14.3c-0.3-4-0.3-8.5-2.8-11.8
			c-4.4-5.7-13.9-5.2-20.3-4.4c-2,0.3-4,0.6-5.9,1.1c-2,0.5-3.9,1-5.8,1.6c-6.2,2-14.9,5.7-16.4,12.8c-0.8,4.1,1.1,8.2,2.7,11.8
			c1.8,4.5,4.4,8.5,6.7,12.7C443.6,159,449.8,170,456,181c1.9,3.3,3.9,7.4,7.4,9.1c0.3,0.1,0.5,0.2,0.7,0.3c1.6,0.6,3.4,0.7,5,0.3
			l0.3-0.1c1.5-0.4,2.9-1.3,4-2.4C473.7,188.1,473.9,187.9,474.1,187.7L474.1,187.7z M471.1,221.5c-2-2.8-5.5-4-8.8-2.9
			c-0.4,0.1-0.7,0.3-1.1,0.4c-0.6,0.3-1.1,0.6-1.5,1c-1.4,1-2.6,2.4-3.7,3.8c-0.3,0.3-0.5,0.8-0.9,1.1l-5.5,7.5
			c-3.1,4.2-6.2,8.4-9.2,12.7c-2,2.8-3.7,5.1-5.1,7.2c-0.3,0.4-0.5,0.9-0.8,1.2c-1.6,2.5-2.5,4.3-3,5.9c-0.3,1.1-0.5,2.3-0.3,3.4
			c0.1,1.2,0.5,2.3,1.1,3.3c0.3,0.5,0.7,1,1.1,1.5c0.8,0.9,1.7,1.8,2.8,2.5c3.8,2.6,7.9,4.5,12.3,6c3.6,1.2,7.4,1.9,11.2,2.1
			c0.7,0,1.3,0,2,0c0.6-0.1,1.2-0.1,1.8-0.3c0.6-0.1,1.2-0.3,1.7-0.5c2.2-0.8,4-2.5,4.8-4.7c0.6-1.6,1-3.6,1.3-6.6
			c0-0.4,0.1-0.9,0.1-1.4c0.2-2.5,0.3-5.4,0.5-8.8c0.3-5.2,0.5-10.4,0.6-15.7l0.3-9.3c0.1-2.2,0-4.5-0.6-6.7
			C472.1,223.3,471.7,222.4,471.1,221.5L471.1,221.5z M532.9,236c-1.1-1.3-2.8-2.5-5.3-4c-0.4-0.2-0.8-0.5-1.2-0.7
			c-2.1-1.3-4.7-2.6-7.7-4.2c-4.6-2.5-9.2-5-13.8-7.4l-8.2-4.3c-0.4-0.1-0.9-0.4-1.3-0.6c-1.6-0.8-3.3-1.4-5-1.8
			c-0.6-0.1-1.2-0.2-1.8-0.2c-0.4,0-0.8,0-1.2,0.1c-3.4,0.5-6,3.1-6.6,6.5c-0.1,1-0.1,2.1,0.1,3.1c0.4,2.2,1.4,4.3,2.4,6.2l4.4,8.2
			c2.4,4.7,4.9,9.2,7.4,13.8c1.6,3,3,5.5,4.3,7.7c0.2,0.4,0.5,0.8,0.7,1.2c1.5,2.6,2.8,4.2,4.1,5.3c0.8,0.8,1.8,1.4,2.8,1.8
			c1.1,0.4,2.3,0.5,3.5,0.4c0.6-0.1,1.2-0.2,1.8-0.3c0.6-0.2,1.2-0.3,1.7-0.5c0.6-0.3,1.2-0.5,1.7-0.8c3.4-1.9,6.4-4.2,9.1-6.8
			c3.3-3.2,6.2-6.7,8.4-10.8c0.3-0.6,0.6-1.2,0.8-1.8c0.2-0.6,0.4-1.1,0.6-1.7c0.1-0.6,0.2-1.2,0.3-1.8c0.1-1.2,0-2.4-0.4-3.5
			C534.3,237.8,533.7,236.8,532.9,236L532.9,236z M532.9,236"/>
		<path class="st1" d="M250.5,156.2c0-6.8,5.5-12.3,12.2-12.3c6.6,0,11.9,5.5,12.2,12.4v95.9c0,6.8-5.5,12.3-12.2,12.3
			c-6.7,0-12.2-5.5-12.2-12.3V156.2z M239.2,215.4c-0.1,1.9-0.6,5.4-3,8c-2.7,2.8-6.3,3.4-8.4,3.4c-8.7,0.1-17.4,0.1-26.1,0.1
			c-8.7,0-17.4,0-26.1,0.1c0.8,2.4,2.3,6,5.7,9.3c2.1,2,4.1,3.1,4.9,3.6c1,0.7,4.7,2.6,9.1,2.6c4.7,0,8.9-1.5,13-3.6l0.3-0.2
			c2.9-1.5,5.8-3,8.9-3.5c3-0.5,6.3,0.1,8.7,2.2c2.9,2.5,4,6.1,2.9,9.8c-1.2,4.2-4.7,7.8-8.5,10c-2.1,1.2-4.4,2.3-6.7,3.1
			c-5.9,2.1-12.1,3.1-18.3,2.9c-1.5,0-3.1,0-4.7-0.2c-1.7-0.2-3.4-0.5-5.1-1c-2.6-0.6-5.2-1.4-7.6-2.6c-2.4-1.1-4.7-2.4-6.9-3.9
			c-2.2-1.6-4.2-3.3-6.1-5.3c-1.9-1.9-3.5-4.1-5-6.3c-5.1-7.8-7.5-17.4-7.1-26.8c0.4-9.1,3.4-18.3,9-25.7c0.6-0.9,1.2-1.7,1.9-2.5
			c0.3-0.3,0.6-0.6,0.8-1c6.8-8.3,15.9-10.9,19.7-12l0.2-0.1c7.6-2.2,15.7-2.2,23.3,0c1.8,0.5,12,3.6,19.9,12.1
			c0.4,0.4,1.4,1.6,2.8,3.4c3.4,4.6,5.9,9.8,7.3,15.3l0,0C238.7,209.1,239.2,211.9,239.2,215.4L239.2,215.4z M183.4,199.7
			c-3.7,3.1-6.4,7.3-7.4,12h41.4c-1.1-4.7-3.7-9-7.5-12c-3.8-3-8.4-4.7-13.3-4.7C194.9,195,189,195.3,183.4,199.7L183.4,199.7z
			 M341,174.5c-10.9,0-20.7,4.8-27.8,12.7V187c-0.4-16.1-24.7-15.5-24.2,0.7v91.6c0,6.7,5.4,12.2,12.2,12.2
			c6.7,0,12.1-5.4,12.1-12.2v-28.6c7,7.8,16.8,12.8,27.7,12.8c21.7,0,39.4-19.7,39.4-44.3C380.4,194.5,362.7,174.5,341,174.5
			L341,174.5z M335.6,243.4c-12.3,0-22.4-10.8-22.4-24.2c0-13.5,10-24.3,22.4-24.3c12.4,0,22.4,10.8,22.4,24.3
			C358,232.7,348,243.4,335.6,243.4L335.6,243.4z M135.1,225.4l-4,8.8c-1.8,3.8-3.6,7.7-5.3,11.6c-0.6,1.2-1.1,2.4-1.6,3.6
			c-7.6,16.9-16.6,37-36.3,41.2c-9.5,2.1-23.9-0.8-29.2-9.7c-5.3-9.1,2.6-19.5,12.7-17.1c1.6,0.3,3.2,1.1,4.8,1.9
			c2.7,1.3,5.3,2.7,8.3,2.1c2.7-0.5,4.5-2.5,6.6-5c2.3-2.8,4-6,4.9-9.5c-0.1-0.1-0.1-0.2-0.1-0.3c-0.1-0.1-0.1-0.2-0.2-0.3
			c-2.5-4.6-4.6-8.8-6.4-12.2c-1.2-2.2-2.2-4.2-3.1-5.8l-4.1-7.8c-3-5.8-3.5-6.7-4.9-9.2c-2.9-5.6-6-11.1-9.3-16.5
			c-3.5-5.9-7.1-12.5-4.2-19.5c2.3-5.6,8.5-8.5,14.2-6.6c6.1,1.8,8.8,7.7,11.4,13.1c0.4,1,0.9,2,1.4,2.9c4.1,8.1,8.1,16.2,12.1,24.3
			c0.3,0.8,0.9,1.9,1.6,3.2c0.6,1.2,1.3,2.6,2,4.1c0.4,0.8,0.7,1.5,1.1,2.2c0.4,0.8,0.8,1.6,1,2.2c1.9-4.6,3.7-9.2,5.6-13.8
			c1.9-4.6,3.8-9.2,5.6-13.8c0-0.3,0.5-1.2,1.1-2.7c1-2.2,2-4.4,2.9-6.6c2.5-6,5.4-13.2,12-15.2c4.8-1.4,9.9,0.4,12.8,4.5
			c1.5,2,2,4.3,2.1,6.6c0.1,5.1-2.4,10.5-4.5,15.1c-0.5,1.1-1,2.2-1.4,3.3l-0.3,0.6c-0.6,1.3-2.2,4.8-4.9,10.7
			c-1,2.1-1.9,4.2-2.9,6.3C136.2,223.1,135.6,224.3,135.1,225.4L135.1,225.4z M135.1,225.4"/>
	</g>
</g>
</svg>
