<svg width="88" height="88" viewBox="0 0 88 88" fill="none" xmlns="http://www.w3.org/2000/svg">
<circle opacity="0.4" cx="59" cy="17" r="16" fill="#D9F4FF"/>
<path d="M55.1995 57.2058C55.196 57.5102 55.1025 57.8067 54.9308 58.058C54.7591 58.3093 54.5169 58.5043 54.2347 58.6183C53.9525 58.7323 53.6429 58.7603 53.3448 58.6987C53.0468 58.6372 52.7735 58.4888 52.5596 58.2723C52.3456 58.0559 52.2005 57.7809 52.1424 57.4822C52.0843 57.1834 52.1159 56.8741 52.2332 56.5933C52.3505 56.3124 52.5483 56.0725 52.8016 55.9038C53.0549 55.7351 53.3525 55.645 53.6569 55.645C54.0682 55.6479 54.4617 55.8139 54.7509 56.1065C55.0401 56.3991 55.2014 56.7944 55.1995 57.2058ZM53.6569 60.6534C53.3474 60.6498 53.0438 60.7382 52.7847 60.9076C52.5255 61.0769 52.3226 61.3194 52.2017 61.6043C52.0807 61.8892 52.0472 62.2036 52.1053 62.5076C52.1635 62.8116 52.3107 63.0915 52.5283 63.3116C52.7459 63.5318 53.024 63.6823 53.3273 63.744C53.6306 63.8057 53.9454 63.7758 54.2317 63.6582C54.518 63.5406 54.7629 63.3405 54.9352 63.0834C55.1075 62.8263 55.1996 62.5237 55.1995 62.2142C55.2014 61.8028 55.0401 61.4075 54.7509 61.1149C54.4617 60.8223 54.0682 60.6563 53.6569 60.6534ZM55.0319 67.4361V78.7188C55.0307 79.7213 54.632 80.6824 53.9231 81.3913C53.2142 82.1001 52.2531 82.4989 51.2506 82.5H9.59375C8.59125 82.4989 7.63013 82.1001 6.92125 81.3913C6.21238 80.6824 5.81363 79.7213 5.8125 78.7188V18.842C5.81363 17.8395 6.21238 16.8783 6.92125 16.1695C7.63013 15.4606 8.59125 15.0619 9.59375 15.0607H19.5158V12.7164C19.5159 12.3517 19.6607 12.002 19.9186 11.7441C20.1764 11.4863 20.5262 11.3414 20.8908 11.3414H24.2446V9.28125C24.2457 8.27875 24.6445 7.31763 25.3533 6.60875C26.0622 5.89988 27.0233 5.50113 28.0258 5.5H32.5607C33.5632 5.50113 34.5243 5.89988 35.2332 6.60875C35.9421 7.31763 36.3408 8.27875 36.342 9.28125V11.3414H39.6959C40.0605 11.3414 40.4103 11.4863 40.6681 11.7441C40.926 12.002 41.0709 12.3517 41.0709 12.7164V15.0607H51.2506C52.2531 15.0619 53.2142 15.4606 53.9231 16.1695C54.632 16.8783 55.0307 17.8395 55.0319 18.842V25.6191C55.0319 25.9838 54.887 26.3335 54.6291 26.5914C54.3713 26.8492 54.0215 26.9941 53.6569 26.9941C53.2922 26.9941 52.9425 26.8492 52.6846 26.5914C52.4267 26.3335 52.2819 25.9838 52.2819 25.6191V18.842C52.2816 18.5686 52.1728 18.3064 51.9795 18.1131C51.7862 17.9198 51.524 17.811 51.2506 17.8107H41.0709V20.1549C41.0709 20.5195 40.926 20.8693 40.6681 21.1271C40.4103 21.385 40.0605 21.5298 39.6959 21.5299H20.8908C20.5262 21.5298 20.1764 21.385 19.9186 21.1271C19.6607 20.8693 19.5159 20.5195 19.5158 20.1549V17.8107H9.59375C9.32034 17.811 9.05821 17.9198 8.86488 18.1131C8.67154 18.3064 8.5628 18.5686 8.5625 18.842V78.7188C8.5628 78.9922 8.67154 79.2543 8.86488 79.4476C9.05821 79.641 9.32034 79.7497 9.59375 79.75H51.2506C51.524 79.7497 51.7862 79.641 51.9795 79.4476C52.1728 79.2543 52.2816 78.9922 52.2819 78.7188V67.4361C52.2819 67.0714 52.4267 66.7217 52.6846 66.4638C52.9425 66.206 53.2922 66.0611 53.6569 66.0611C54.0215 66.0611 54.3713 66.206 54.6291 66.4638C54.887 66.7217 55.0319 67.0714 55.0319 67.4361ZM26.9946 10.473H33.592V9.28125C33.5917 9.00784 33.4829 8.74571 33.2896 8.55238C33.0963 8.35904 32.8341 8.2503 32.5607 8.25H28.0258C27.7524 8.2503 27.4903 8.35904 27.297 8.55238C27.1036 8.74571 26.9949 9.00784 26.9946 9.28125V10.473ZM22.2658 18.7799H38.3209V14.0914H22.2658V18.7799ZM21.3329 53.4256C21.3329 53.7903 21.1881 54.14 20.9302 54.3979C20.6723 54.6557 20.3226 54.8006 19.9579 54.8006H14.1645C13.7999 54.8006 13.4502 54.6557 13.1923 54.3979C12.9344 54.14 12.7896 53.7903 12.7895 53.4256V47.6322C12.7896 47.2675 12.9344 46.9178 13.1923 46.66C13.4502 46.4021 13.7999 46.2572 14.1645 46.2572H19.9579C20.3226 46.2572 20.6723 46.4021 20.9302 46.66C21.188 46.9178 21.3329 47.2675 21.3329 47.6322L21.3329 53.4256ZM18.5829 49.0072H15.5395V52.0506H18.5829L18.5829 49.0072ZM21.3329 64.5394V70.3328C21.3329 70.6975 21.1881 71.0472 20.9302 71.305C20.6723 71.5629 20.3226 71.7078 19.9579 71.7078H14.1645C13.7999 71.7078 13.4502 71.5629 13.1923 71.305C12.9344 71.0472 12.7896 70.6975 12.7895 70.3328V64.5394C12.7896 64.1747 12.9344 63.825 13.1923 63.5672C13.4502 63.3093 13.7999 63.1644 14.1645 63.1644H19.9579C20.3226 63.1644 20.6723 63.3093 20.9302 63.5672C21.1881 63.825 21.3329 64.1747 21.3329 64.5394ZM18.5829 65.9144H15.5395V68.9578H18.5829L18.5829 65.9144ZM44.1608 63.3725H26.2242C25.8595 63.3725 25.5098 63.5174 25.2519 63.7753C24.994 64.0331 24.8492 64.3829 24.8492 64.7475C24.8492 65.1122 24.994 65.4619 25.2519 65.7198C25.5098 65.9777 25.8595 66.1225 26.2242 66.1225H44.1608C44.5254 66.1225 44.8752 65.9777 45.133 65.7198C45.3909 65.4619 45.5358 65.1122 45.5358 64.7475C45.5358 64.3829 45.3909 64.0331 45.133 63.7753C44.8752 63.5174 44.5254 63.3725 44.1608 63.3725ZM44.1608 68.7498H26.2242C25.8595 68.7498 25.5098 68.8947 25.2519 69.1526C24.994 69.4104 24.8492 69.7602 24.8492 70.1248C24.8492 70.4895 24.994 70.8392 25.2519 71.0971C25.5098 71.355 25.8595 71.4998 26.2242 71.4998H44.1608C44.5254 71.4998 44.8752 71.355 45.133 71.0971C45.3909 70.8392 45.5358 70.4895 45.5358 70.1248C45.5358 69.7602 45.3909 69.4104 45.133 69.1526C44.8752 68.8947 44.5254 68.7498 44.1608 68.7498ZM36.2684 46.508H26.2242C25.8595 46.508 25.5098 46.6528 25.2519 46.9107C24.994 47.1686 24.8492 47.5183 24.8492 47.883C24.8492 48.2476 24.994 48.5974 25.2519 48.8552C25.5098 49.1131 25.8595 49.258 26.2242 49.258H36.2684C36.6331 49.258 36.9829 49.1131 37.2407 48.8552C37.4986 48.5974 37.6434 48.2476 37.6434 47.883C37.6434 47.5183 37.4986 47.1686 37.2407 46.9107C36.9829 46.6528 36.6331 46.508 36.2684 46.508ZM37.372 51.7189H26.2242C25.8595 51.7189 25.5098 51.8638 25.2519 52.1217C24.994 52.3795 24.8492 52.7293 24.8492 53.0939C24.8492 53.4586 24.994 53.8083 25.2519 54.0662C25.5098 54.3241 25.8595 54.4689 26.2242 54.4689H37.372C37.7367 54.4689 38.0864 54.3241 38.3443 54.0662C38.6022 53.8083 38.747 53.4586 38.747 53.0939C38.747 52.7293 38.6022 52.3795 38.3443 52.1217C38.0864 51.8638 37.7367 51.7189 37.372 51.7189ZM31.0073 25.5934C30.8387 25.5287 30.659 25.4978 30.4785 25.5025C30.298 25.5072 30.1202 25.5475 29.9552 25.6209C29.7903 25.6943 29.6414 25.7996 29.5171 25.9306C29.3928 26.0615 29.2955 26.2157 29.2308 26.3843L26.7873 32.7502C26.7075 32.9585 26.6796 33.183 26.7059 33.4045C26.7322 33.626 26.8119 33.8377 26.9382 34.0215C27.0646 34.2053 27.2337 34.3557 27.431 34.4596C27.6283 34.5635 27.848 34.6179 28.071 34.618H30.935L29.236 38.9099C29.1018 39.249 29.1078 39.6275 29.2526 39.9621C29.3975 40.2968 29.6694 40.5602 30.0084 40.6944C30.3475 40.8286 30.726 40.8227 31.0607 40.6778C31.3954 40.5329 31.6588 40.2611 31.793 39.922L34.2365 33.7491C34.3189 33.5406 34.349 33.315 34.3243 33.0922C34.2996 32.8693 34.2208 32.6559 34.0947 32.4705C33.9687 32.285 33.7992 32.1332 33.6011 32.0282C33.403 31.9232 33.1822 31.8682 32.958 31.868H30.0715L31.7982 27.3699C31.9288 27.0295 31.9189 26.651 31.7706 26.3179C31.6223 25.9848 31.3477 25.7242 31.0073 25.5934ZM56.4299 48.9647L55.3281 51.8683H64.9889L63.802 48.9647H56.4299ZM82.1861 36.4424C82.1861 36.807 82.0412 37.1568 81.7833 37.4146C81.5255 37.6725 81.1758 37.8173 80.8111 37.8174H78.0017L77.2569 39.3069C78.1353 39.7765 78.8698 40.4756 79.3822 41.3297C79.8946 42.1838 80.1656 43.1609 80.1664 44.1569V50.1977C80.1659 50.6406 79.9897 51.0653 79.6765 51.3785C79.3633 51.6916 78.9387 51.8678 78.4958 51.8683H77.3758V53.0785C77.3747 54.0804 76.9761 55.041 76.2677 55.7495C75.5592 56.4579 74.5986 56.8564 73.5967 56.8576H72.9325C72.0429 56.8565 71.1901 56.5027 70.561 55.8737C69.932 55.2446 69.5781 54.3917 69.5771 53.5021V51.8683H67.9598L65.9981 47.0694C65.8948 46.8167 65.7186 46.6004 65.4919 46.4482C65.2652 46.296 64.9984 46.2147 64.7253 46.2147H55.4809C55.2019 46.2147 54.9295 46.2996 54.6999 46.4581C54.4702 46.6166 54.2943 46.8411 54.1953 47.102L52.3869 51.8683H50.7951V53.0785C50.794 54.0804 50.3954 55.041 49.687 55.7495C48.9785 56.4579 48.0179 56.8564 47.016 56.8576H46.3518C45.4622 56.8566 44.6094 56.5027 43.9803 55.8737C43.3513 55.2446 42.9974 54.3917 42.9964 53.5021V51.8683H41.8765C41.4336 51.8678 41.009 51.6916 40.6958 51.3785C40.3826 51.0653 40.2065 50.6406 40.206 50.1977V44.4525C40.2067 43.4432 40.4709 42.4515 40.9725 41.5756C41.474 40.6998 42.1956 39.97 43.0657 39.4585L42.2451 37.8174H39.4357C39.071 37.8174 38.7213 37.6725 38.4634 37.4146C38.2056 37.1568 38.0607 36.807 38.0607 36.4424C38.0607 36.0777 38.2056 35.728 38.4634 35.4701C38.7213 35.2122 39.071 35.0674 39.4357 35.0674H43.0949C43.3503 35.0674 43.6006 35.1385 43.8178 35.2727C44.035 35.4069 44.2105 35.599 44.3247 35.8274L44.9375 37.0529L47.8925 30.9912C48.1659 30.436 48.5887 29.9682 49.1135 29.6402C49.6382 29.3123 50.2441 29.1372 50.8629 29.1348H69.5093C70.1281 29.1371 70.734 29.3121 71.2588 29.6401C71.7836 29.9681 72.2064 30.436 72.4797 30.9912L75.3728 36.926L75.9221 35.8274C76.0363 35.599 76.2118 35.4069 76.429 35.2727C76.6462 35.1385 76.8965 35.0674 77.1519 35.0674H80.8111C81.1758 35.0674 81.5255 35.2122 81.7833 35.4701C82.0412 35.728 82.1861 36.0777 82.1861 36.4424ZM44.8093 44.0878C44.8093 44.4524 44.9542 44.8022 45.2121 45.06C45.4699 45.3179 45.8197 45.4628 46.1843 45.4628H48.4205C48.7852 45.4628 49.135 45.3179 49.3928 45.0601C49.6507 44.8022 49.7955 44.4525 49.7955 44.0878C49.7955 43.7231 49.6507 43.3734 49.3928 43.1155C49.135 42.8576 48.7852 42.7128 48.4205 42.7128H46.1843C45.8197 42.7128 45.4699 42.8577 45.2121 43.1155C44.9542 43.3734 44.8093 43.7231 44.8093 44.0878ZM74.188 42.5018H71.9518C71.7712 42.5018 71.5924 42.5374 71.4256 42.6065C71.2588 42.6756 71.1072 42.7768 70.9795 42.9045C70.8519 43.0322 70.7506 43.1838 70.6815 43.3506C70.6124 43.5174 70.5768 43.6962 70.5768 43.8768C70.5768 44.0574 70.6124 44.2362 70.6815 44.403C70.7506 44.5698 70.8519 44.7214 70.9795 44.8491C71.1072 44.9768 71.2588 45.078 71.4256 45.1471C71.5924 45.2162 71.7712 45.2518 71.9518 45.2518H74.188C74.5527 45.2518 74.9024 45.1069 75.1603 44.8491C75.4182 44.5912 75.563 44.2415 75.563 43.8768C75.563 43.5121 75.4182 43.1624 75.1603 42.9045C74.9024 42.6467 74.5527 42.5018 74.188 42.5018ZM47.2151 38.6569H73.1571L70.0076 32.1964C69.9618 32.1032 69.8909 32.0246 69.8029 31.9696C69.7148 31.9146 69.6131 31.8852 69.5093 31.8848H50.8629C50.759 31.8852 50.6573 31.9146 50.5693 31.9697C50.4812 32.0248 50.4102 32.1033 50.3644 32.1965L47.2151 38.6569Z" fill="#5D6878"/>
</svg>
