<svg width="91" height="94" viewBox="0 0 91 94" fill="none" xmlns="http://www.w3.org/2000/svg">
<circle opacity="0.4" cx="75" cy="16" r="16" fill="#D9F4FF"/>
<g clip-path="url(#clip0_2290_6008)">
<path d="M85.8516 34.2195H69.6845V20.2618H70.8242C72.0089 20.2618 72.9726 19.2981 72.9726 18.1134V14.7656C72.9726 13.5809 72.0089 12.6172 70.8242 12.6172H54.1509C53.6169 11.7009 52.6238 11.0818 51.4864 11.0818H49.4581V9.07227C49.4581 7.37827 48.0753 6 46.3758 6H41.6242C39.9247 6 38.5419 7.37827 38.5419 9.07227V11.0818H36.5138C35.3763 11.0818 34.3832 11.7009 33.8492 12.6172H27.7937C27.0818 12.6172 26.5047 13.1942 26.5047 13.9062C26.5047 14.6183 27.0818 15.1953 27.7937 15.1953H33.4316V17.6837H17.6055V15.1953H22.5729C23.2848 15.1953 23.8619 14.6183 23.8619 13.9062C23.8619 13.1942 23.2848 12.6172 22.5729 12.6172H17.176C15.9913 12.6172 15.0275 13.5809 15.0275 14.7656V18.1134C15.0275 19.2981 15.9913 20.2618 17.176 20.2618H18.3157V34.2195H2.14844C0.963703 34.2195 0 35.1832 0 36.3679V39.7157C0 40.9004 0.963703 41.8641 2.14844 41.8641H2.88492V90.9922C2.88492 92.6506 4.23431 94 5.89273 94H82.1073C83.7657 94 85.1151 92.6506 85.1151 90.9922V41.864H85.8516C87.0363 41.864 88 40.9002 88 39.7155V36.3677C88 35.1832 87.0363 34.2195 85.8516 34.2195ZM69.6845 59.9124H82.5369V65.5824H69.6845V59.9124ZM69.6845 68.1605H82.5369V74.2057H69.6845V68.1605ZM82.5369 57.3343H69.6845V51.2891H82.5369V57.3343ZM70.3943 17.6837H54.5684V15.1953H70.3943V17.6837ZM36.0097 14.1541C36.0097 13.8817 36.2357 13.66 36.5138 13.66H39.831C40.5429 13.66 41.1201 13.083 41.1201 12.3709V9.07227C41.1201 8.79984 41.3461 8.57812 41.6242 8.57812H46.3758C46.6538 8.57812 46.8799 8.79984 46.8799 9.07227V12.3709C46.8799 13.083 47.4569 13.66 48.169 13.66H51.4864C51.7643 13.66 51.9905 13.8817 51.9905 14.1541V18.8793C51.9905 19.1517 51.7645 19.3734 51.4864 19.3734H48.169C47.4569 19.3734 46.8799 19.9504 46.8799 20.6625V23.9611C46.8799 24.2335 46.6539 24.4552 46.3758 24.4552H41.6242C41.3462 24.4552 41.1201 24.2335 41.1201 23.9611V20.6627C41.1201 19.9506 40.5429 19.3736 39.831 19.3736H36.5138C36.2359 19.3736 36.0097 19.1519 36.0097 18.8795V14.1541ZM18.3155 65.5824H5.46305V59.9124H18.3155V65.5824ZM18.3155 57.3343H5.46305V51.2891H18.3155V57.3343ZM5.46305 68.1605H18.3155V74.2057H5.46305V68.1605ZM2.57812 36.7976H18.3155V39.286H2.57812V36.7976ZM18.3155 41.864V48.7109H5.46305V41.864H18.3155ZM5.46305 90.9922V76.7838H18.3155V91.4219H5.89273C5.65589 91.4219 5.46305 91.2292 5.46305 90.9922ZM30.6797 79.2311H42.7109V91.4219H30.6797V79.2311ZM45.2891 91.4219V79.2311H57.3203V91.4219H45.2891ZM59.8984 91.4219V79.2311H60.5115C61.6962 79.2311 62.66 78.2674 62.66 77.0827V73.7347C62.66 72.55 61.6962 71.5863 60.5115 71.5863H54.196C53.4839 71.5863 52.9069 72.1633 52.9069 72.8754C52.9069 73.5874 53.4839 74.1644 54.196 74.1644H60.0818V76.653C49.3606 76.653 38.6392 76.653 27.918 76.653V74.1644H49.0535C49.7655 74.1644 50.3425 73.5874 50.3425 72.8754C50.3425 72.1633 49.7655 71.5863 49.0535 71.5863H27.4883C26.3036 71.5863 25.3399 72.55 25.3399 73.7347V77.0827C25.3399 78.2674 26.3036 79.2311 27.4883 79.2311H28.1014V91.4219H20.8935V20.2618H33.7648C34.2736 21.2627 35.3133 21.9517 36.5136 21.9517H38.5418V23.9613C38.5418 25.6553 39.9243 27.0335 41.624 27.0335H46.3757C48.0752 27.0335 49.4579 25.6553 49.4579 23.9613V21.9517H51.4862C52.6866 21.9517 53.7262 21.2627 54.235 20.2618H67.1062V91.4219H59.8984ZM82.1073 91.4219H69.6845V76.7838H82.5369V90.9922C82.5369 91.2292 82.3443 91.4219 82.1073 91.4219ZM82.5369 48.7109H69.6845V41.864H82.5369V48.7109ZM85.4219 39.2858H69.6845V36.7974H85.4219V39.2858Z" fill="#5D6878"/>
<path d="M39.4361 32.4126H30.3125C29.1278 32.4126 28.1641 33.3763 28.1641 34.561V41.522C28.1641 42.7067 29.1278 43.6704 30.3125 43.6704H39.4361C40.6209 43.6704 41.5846 42.7067 41.5846 41.522V34.561C41.5846 33.3763 40.6207 32.4126 39.4361 32.4126ZM39.0065 41.0923H30.7422V34.9907H39.0065V41.0923Z" fill="#5D6878"/>
<path d="M57.6861 32.4126H48.5625C47.3778 32.4126 46.4141 33.3763 46.4141 34.561V41.522C46.4141 42.7067 47.3778 43.6704 48.5625 43.6704H57.6861C58.8709 43.6704 59.8346 42.7067 59.8346 41.522V34.561C59.8346 33.3763 58.8707 32.4126 57.6861 32.4126ZM57.2564 41.0923H48.9922V34.9907H57.2564V41.0923Z" fill="#5D6878"/>
<path d="M39.4361 48.4951H30.3125C29.1278 48.4951 28.1641 49.4588 28.1641 50.6436V57.6045C28.1641 58.7892 29.1278 59.7529 30.3125 59.7529H39.4361C40.6209 59.7529 41.5846 58.7892 41.5846 57.6045V50.6436C41.5846 49.459 40.6207 48.4951 39.4361 48.4951ZM39.0065 57.1748H30.7422V51.0732H39.0065V57.1748Z" fill="#5D6878"/>
<path d="M57.6861 48.4951H48.5625C47.3778 48.4951 46.4141 49.4588 46.4141 50.6436V57.6045C46.4141 58.7892 47.3778 59.7529 48.5625 59.7529H57.6861C58.8709 59.7529 59.8346 58.7892 59.8346 57.6045V50.6436C59.8346 49.459 58.8707 48.4951 57.6861 48.4951ZM57.2564 57.1748H48.9922V51.0732H57.2564V57.1748Z" fill="#5D6878"/>
</g>
<defs>
<clipPath id="clip0_2290_6008">
<rect width="88" height="88" fill="white" transform="translate(0 6)"/>
</clipPath>
</defs>
</svg>
