<svg width="89" height="90" viewBox="0 0 89 90" fill="none" xmlns="http://www.w3.org/2000/svg">
<circle opacity="0.4" cx="73" cy="16" r="16" fill="#D9F4FF"/>
<path d="M84.7915 40.8507L64.6244 22.7667V19.8751C64.6244 17.6008 62.7737 15.7501 60.4994 15.7501C59.4998 15.7501 58.5937 16.1213 57.8787 16.7153L44.9165 5.10068C44.394 4.6318 43.6034 4.6318 43.0809 5.10068L3.20592 40.8507C2.78104 41.2316 2.63529 41.8338 2.83879 42.3659C3.04367 42.8994 3.55379 43.2501 4.12442 43.2501H6.87442V85.8751C6.87442 86.6341 7.49042 87.2501 8.24942 87.2501H79.7494C80.5084 87.2501 81.1244 86.6341 81.1244 85.8751V43.2501H83.8744C84.445 43.2501 84.9552 42.8994 85.1587 42.3659C85.3622 41.8338 85.2164 41.2316 84.7915 40.8507ZM80.2815 40.5001H79.7494H64.6244V26.4613L80.2815 40.5001ZM68.7494 70.7501H52.2494V67.8144C52.2494 65.6419 54.0163 63.8751 56.1888 63.8751H64.8114C66.9825 63.8751 68.7494 65.6419 68.7494 67.8144V70.7501ZM59.1244 19.8751C59.1244 19.1174 59.7418 18.5001 60.4994 18.5001C61.257 18.5001 61.8744 19.1174 61.8744 19.8751V61.1251H59.1244V19.8751ZM43.9994 7.97168L56.45 19.1284C56.4047 19.3704 56.3744 19.6193 56.3744 19.8751V40.5001H8.24942H7.71729L43.9994 7.97168ZM9.62442 43.2501H56.3744V61.1251H56.1888C52.4997 61.1251 49.4994 64.1253 49.4994 67.8144V71.8597L44.4435 84.5001H34.3744V58.3751C34.3744 57.6161 33.7584 57.0001 32.9994 57.0001H16.4994C15.7404 57.0001 15.1244 57.6161 15.1244 58.3751V84.5001H9.62442V43.2501ZM17.8744 84.5001V59.7501H31.6244V84.5001H17.8744ZM68.5019 84.5001L67.3483 78.7306L64.6519 79.2709L65.6969 84.5001H61.8744V79.0001H59.1244V84.5001H55.3019L56.3483 79.2696L53.6519 78.7292L52.4969 84.5001H47.4053L51.8053 73.5001H69.1935L73.5935 84.5001H68.5019ZM78.3744 84.5001H76.5553L71.4994 71.8597V67.8144C71.4994 64.1253 68.4992 61.1251 64.81 61.1251H64.6244V43.2501H78.3744V84.5001Z" fill="#5D6878"/>
<path d="M37.125 36.375H50.875C51.634 36.375 52.25 35.759 52.25 35V26.75C52.25 22.2001 48.5499 18.5 44 18.5C39.4501 18.5 35.75 22.2001 35.75 26.75V35C35.75 35.759 36.366 36.375 37.125 36.375ZM38.5 29.5H42.625V33.625H38.5V29.5ZM45.375 33.625V29.5H49.5V33.625H45.375ZM49.5 26.75H45.375V21.4453C47.74 22.0599 49.5 24.1953 49.5 26.75ZM42.625 21.4453V26.75H38.5C38.5 24.1953 40.26 22.0599 42.625 21.4453Z" fill="#5D6878"/>
<path d="M20.625 70.75H23.375V73.5H20.625V70.75Z" fill="#5D6878"/>
<path d="M44 62.5H46.75C46.75 58.7091 49.8341 55.625 53.625 55.625V52.875C49.8341 52.875 46.75 49.7909 46.75 46H44C44 49.7909 40.9159 52.875 37.125 52.875V55.625C40.9159 55.625 44 58.7091 44 62.5ZM45.375 50.9321C46.1917 52.2934 47.3316 53.4332 48.6929 54.25C47.3316 55.0667 46.1917 56.2066 45.375 57.5679C44.5582 56.2066 43.4184 55.0667 42.0571 54.25C43.4184 53.4332 44.5582 52.2934 45.375 50.9321Z" fill="#5D6878"/>
</svg>
