<svg width="100" height="96" viewBox="0 0 100 96" fill="none" xmlns="http://www.w3.org/2000/svg">
<circle opacity="0.4" cx="84" cy="16" r="16" fill="#D9F4FF"/>
<path d="M86.449 42.8396C86.449 42.5883 86.3806 42.3537 86.2629 42.151L86.2639 42.1505L74.9612 22.6376C74.9126 22.5535 74.859 22.4738 74.8033 22.3959V13.4282C74.8033 11.1933 72.9369 9.375 70.6431 9.375H17.1164C14.8223 9.375 12.9561 11.1933 12.9561 13.4282V22.9569L1.83839 42.1504L1.83942 42.1509C1.72169 42.3535 1.65328 42.5883 1.65328 42.8394H1.55273C1.55273 46.5571 3.98339 49.8002 7.56423 51.4851V93.25C7.56423 94.0093 8.17989 94.625 8.93923 94.625H77.0244C77.7838 94.625 78.3994 94.0093 78.3994 93.25V52.93C83.0651 51.5493 86.449 47.549 86.449 42.8396ZM82.6884 41.4646H65.5927L60.4467 23.8871H72.2795C72.3644 23.8871 72.5168 23.9038 72.5815 24.0157L82.6884 41.4646ZM15.823 23.8873H27.6556L22.5096 41.4647H5.41391L15.521 24.0155C15.5856 23.9039 15.7381 23.8873 15.823 23.8873ZM57.5814 23.8873L62.7273 41.4647H45.4262V23.8873H57.5814ZM42.6762 41.4646H25.3751L30.5211 23.8871H42.6762V41.4646ZM42.5372 44.2146C41.7998 47.8934 38.1619 50.6967 33.7955 50.6967C29.429 50.6967 25.7912 47.8934 25.0539 44.2146H42.5372ZM62.8709 44.2146C62.0708 47.4883 58.4722 49.966 54.1656 49.966C49.8589 49.966 46.2605 47.4883 45.4604 44.2146H62.8709ZM17.1164 12.125H70.6431C71.4206 12.125 72.0533 12.7095 72.0533 13.4282V21.1373H15.823C15.7836 21.1373 15.7451 21.1395 15.7061 21.1409V13.4282C15.7061 12.7095 16.3388 12.125 17.1164 12.125ZM4.47014 44.2146H21.8806C21.0805 47.4883 17.4821 49.966 13.1754 49.966C8.86877 49.966 5.27022 47.4883 4.47014 44.2146ZM17.5615 64.7232H26.1804V91.875H17.5615V64.7232ZM37.4806 64.7232V91.875H28.9302V64.7232H37.4806ZM37.5396 61.9732H17.5866V60.427H37.5396V61.9732ZM75.6494 91.875H40.2306V63.7459C40.2686 63.62 40.2896 63.4866 40.2896 63.3484V59.0522C40.2896 58.2929 39.6739 57.6772 38.9146 57.6772H16.2116C15.4523 57.6772 14.8366 58.2929 14.8366 59.0522V63.3484H14.8115V91.875H10.3142V52.4125C11.23 52.6102 12.1882 52.716 13.1753 52.716C17.5742 52.716 21.4098 50.6284 23.3831 47.5579C25.2907 51.0447 29.2402 53.4467 33.7955 53.4467C38.2621 53.4467 42.1465 51.137 44.0944 47.7598C46.1041 50.7188 49.8642 52.716 54.1656 52.716C58.5774 52.716 62.4226 50.6162 64.3909 47.5311C66.2927 51.0325 70.2515 53.4467 74.8184 53.4467C75.098 53.4467 75.3746 53.4345 75.6494 53.4166V91.875ZM74.8184 50.6967C70.4519 50.6967 66.814 47.8934 66.0767 44.2146H83.5601C82.8226 47.8934 79.1849 50.6967 74.8184 50.6967ZM30.1369 80.9915V75.3394C30.1369 74.5801 30.7526 73.9644 31.5119 73.9644C32.2713 73.9644 32.8869 74.5801 32.8869 75.3394V80.9915C32.8869 81.7509 32.2713 82.3665 31.5119 82.3665C30.7526 82.3665 30.1369 81.7509 30.1369 80.9915ZM24.6807 75.3394V80.9915C24.6807 81.7509 24.0651 82.3665 23.3057 82.3665C22.5464 82.3665 21.9307 81.7509 21.9307 80.9915V75.3394C21.9307 74.5801 22.5464 73.9644 23.3057 73.9644C24.0651 73.9644 24.6807 74.5801 24.6807 75.3394ZM70.4932 58.0196H47.0934C46.3341 58.0196 45.7184 58.6352 45.7184 59.3946V85.7035C45.7184 86.4628 46.3341 87.0785 47.0934 87.0785H70.4932C71.2525 87.0785 71.8682 86.4628 71.8682 85.7035V59.3946C71.8682 58.6351 71.2525 58.0196 70.4932 58.0196ZM69.1182 67.7601H65.9045V60.7696H69.1182V67.7601ZM48.4684 77.2947V70.5101H51.5261V77.2947H48.4684ZM54.2761 70.5101H57.4566V77.2947H54.2761V70.5101ZM57.4566 67.7601H54.2761V60.7696H57.4566V67.7601ZM60.2066 60.7696H63.1543V67.7601H60.2066V60.7696ZM60.2066 70.5101H63.1543V77.2947H60.2066V70.5101ZM65.9043 70.5101H69.118V77.2947H65.9043V70.5101ZM51.5261 60.7696V67.7601H48.4684V60.7696H51.5261ZM48.4684 84.3285V80.0447H69.1182V84.3285H48.4684Z" fill="#5D6878"/>
</svg>
