<svg width="121" height="120" viewBox="0 0 121 120" fill="none" xmlns="http://www.w3.org/2000/svg">
<path fill-rule="evenodd" clip-rule="evenodd" d="M62.3127 111.114H10.9007C9.86091 111.114 9.01832 110.271 9.01832 109.232V34.4005C9.01832 33.9012 9.21667 33.4224 9.56962 33.0694L20.264 22.3751C20.6169 22.0219 21.0957 21.8238 21.595 21.8238H42.0129V20.9791C42.0129 20.2005 42.4924 19.5022 43.2193 19.2224L45.668 18.28C46.0529 16.9779 46.5729 15.7233 47.2223 14.533L46.1557 12.1339C45.8393 11.4222 45.9939 10.589 46.5447 10.0382L50.404 6.17886C50.9548 5.62804 51.788 5.47321 52.4997 5.78968L54.8988 6.85651C56.0891 6.20733 57.343 5.6878 58.6421 5.30545L59.5889 2.8518C59.8689 2.12592 60.567 1.64709 61.3451 1.64709H66.8042C67.5833 1.64709 68.2819 2.12709 68.5614 2.85439L69.5035 5.30592C70.8021 5.68827 72.0553 6.20757 73.2449 6.85651L75.644 5.78968C76.3557 5.47321 77.1889 5.62804 77.7397 6.17886L81.5993 10.0382C82.1494 10.5883 82.3044 11.4203 81.9891 12.1316L80.9261 14.5316C81.576 15.7226 82.0957 16.9782 82.4783 18.281L84.9247 19.2224C85.6513 19.5022 86.1308 20.2005 86.1308 20.9791V26.4384C86.1308 27.2172 85.6513 27.9156 84.9247 28.1951L82.4771 29.137C82.0941 30.4356 81.5727 31.689 80.9251 32.8786L81.9891 35.2805C82.3044 35.9918 82.1494 36.8238 81.5993 37.3739L78.7724 40.2007V57.5537C79.8416 57.44 80.9275 57.3817 82.0268 57.3817C98.8524 57.3817 112.512 71.0419 112.512 87.8673C112.512 104.693 98.8524 118.353 82.0268 118.353C74.5124 118.353 67.6296 115.629 62.3127 111.114ZM42.0129 25.5885H23.4774V34.4005C23.4774 35.44 22.6346 36.2829 21.595 36.2829H12.783V107.349H58.5849C56.208 104.493 54.3426 101.196 53.1301 97.5996H45.7501C44.7113 97.5996 43.8677 96.756 43.8677 95.7172C43.8677 94.6782 44.7113 93.8349 45.7501 93.8349H52.1261C51.9941 93.1713 51.884 92.5003 51.796 91.8222H45.7501C44.7113 91.8222 43.8677 90.9786 43.8677 89.9398C43.8677 88.901 44.7113 88.0574 45.7501 88.0574H51.5419C51.5414 87.9941 51.5411 87.9309 51.5411 87.8673C51.5411 84.2285 52.1802 80.7377 53.3517 77.501H45.7501C44.7113 77.501 43.8677 76.6577 43.8677 75.6186C43.8677 74.5798 44.7113 73.7363 45.7501 73.7363H55.0117C55.372 73.0497 55.7576 72.3784 56.1675 71.7238H45.7501C44.7113 71.7238 43.8677 70.8803 43.8677 69.8414C43.8677 68.8026 44.7113 67.9591 45.7501 67.9591H58.9463C63.0734 63.1796 68.6586 59.6937 75.0077 58.1951V41.3405C74.2969 41.0257 73.2475 40.5607 73.2475 40.5607C72.059 41.2099 70.8028 41.7294 69.5028 42.1118L68.5609 44.5589C68.2814 45.2854 67.583 45.765 66.8042 45.765H61.3451C60.5663 45.765 59.868 45.2854 59.5882 44.5589L58.6468 42.112C57.3444 41.7287 56.0899 41.2071 54.8995 40.5593L52.4974 41.6233C51.7861 41.9384 50.9541 41.7836 50.404 41.2334L46.5447 37.3739C45.9939 36.8231 45.8393 35.9899 46.1557 35.2782L47.2219 32.8803C46.5731 31.6923 46.0534 30.4372 45.6687 29.1379L43.2193 28.1951C42.4924 27.9156 42.0129 27.2172 42.0129 26.4384V25.5885ZM19.7127 28.2504L15.4449 32.5182H19.7127V28.2504ZM66.3336 7.55274L65.511 5.4118H62.6362L61.8091 7.5551C61.5859 8.13392 61.0917 8.56545 60.4882 8.70898C58.9021 9.08592 57.3894 9.71251 55.9993 10.5692C55.4703 10.8951 54.8146 10.9391 54.247 10.6866L52.1517 9.75509L50.1209 11.7859L51.0524 13.881C51.3049 14.4487 51.2609 15.1045 50.935 15.6332C50.0776 17.025 49.4506 18.5393 49.0682 20.132C48.9237 20.7344 48.4922 21.2269 47.9141 21.4494L45.7776 22.2716V25.1459L47.9141 25.968C48.4917 26.1904 48.923 26.6826 49.068 27.2843C49.4501 28.8713 50.0764 30.3902 50.9336 31.7763C51.2609 32.3057 51.3054 32.9624 51.0524 33.5311L50.1209 35.6262L52.1531 37.6584L54.2494 36.7299C54.815 36.4793 55.4675 36.5226 55.995 36.8459C57.3866 37.6984 58.9002 38.3311 60.4924 38.7085C61.0971 38.8516 61.5922 39.284 61.8153 39.864L62.6376 42.0003H65.5117L66.3341 39.864C66.5569 39.2845 67.0515 38.8523 67.6555 38.7087C69.2407 38.332 70.7576 37.7062 72.1421 36.8499C72.6706 36.5231 73.3263 36.4782 73.8946 36.7299L75.9908 37.6584L78.0242 35.6247L77.0957 33.5287C76.8451 32.9631 76.8884 32.3104 77.2117 31.7829C78.0644 30.3913 78.6971 28.8774 79.0746 27.2897C79.2181 26.6857 79.6503 26.1911 80.2298 25.968L82.3661 25.1459V22.2716L80.2298 21.4494C79.6498 21.2264 79.2176 20.7313 79.0743 20.1266C78.6974 18.5358 78.0708 17.0233 77.2143 15.6332C76.8889 15.1052 76.8444 14.4506 77.0957 13.8836L78.0242 11.7873L75.992 9.75509L73.8969 10.6866C73.3291 10.9391 72.6736 10.8951 72.1447 10.5692C70.7543 9.71251 69.2416 9.08592 67.6555 8.70898C67.051 8.56521 66.5564 8.13274 66.3336 7.55274ZM64.072 12.3017C70.3729 12.3017 75.4819 17.405 75.4819 23.7062C75.4819 30.0069 70.3727 35.116 64.072 35.116C57.7708 35.116 52.6675 30.0071 52.6675 23.7062C52.6675 17.4047 57.7706 12.3017 64.072 12.3017ZM64.072 16.0664C59.8506 16.0664 56.4322 19.4847 56.4322 23.7062C56.4322 27.9276 59.8503 31.3513 64.072 31.3513C68.2939 31.3513 71.7171 27.9278 71.7171 23.7062C71.7171 19.4845 68.2934 16.0664 64.072 16.0664ZM82.0268 61.1464C67.2793 61.1464 55.3059 73.1196 55.3059 87.8673C55.3059 102.615 67.2793 114.588 82.0268 114.588C96.7746 114.588 108.748 102.615 108.748 87.8673C108.748 73.1196 96.7746 61.1464 82.0268 61.1464ZM90.2458 101.84C87.7713 102.744 85.2341 103.746 81.2696 103.746H68.2209C65.5506 103.746 63.3694 101.561 63.3694 98.8946C63.3694 98.4292 63.4357 97.9784 63.5593 97.5516C61.6459 96.9003 60.2607 95.0815 60.2607 92.9542C60.2607 92.1127 60.4779 91.3193 60.859 90.6273C59.8666 89.7377 59.2402 88.4471 59.2402 87.016C59.2402 85.388 60.051 83.9417 61.2889 83.0607C61.0148 82.4544 60.8621 81.7831 60.8621 81.0779C60.8621 78.408 63.0461 76.2264 65.716 76.2264H73.8858C73.1722 74.2671 72.6823 71.8111 72.9256 69.6174C73.247 66.7212 74.7035 64.2878 77.9564 63.489C78.4461 63.3687 78.9633 63.4499 79.3924 63.7142C79.8216 63.9784 80.1268 64.4038 80.2397 64.8949C81.5341 70.52 81.3555 71.4558 84.7543 73.6786C87.4849 75.4626 87.3033 75.4015 89.3894 78.42C89.6266 78.7626 89.9327 79.0127 90.3341 79.1473C90.6816 77.8038 91.9066 76.8052 93.3555 76.8052H98.3703C100.081 76.8052 101.49 78.208 101.49 79.9252V101.584C101.49 103.301 100.081 104.704 98.3703 104.704H93.3555C91.7242 104.704 90.3767 103.438 90.2458 101.84ZM90.2355 82.976C88.439 82.7633 87.2026 81.8756 86.2936 80.5624L86.2929 80.5612C84.6621 78.2015 84.8296 78.2247 82.6953 76.8304C78.9275 74.3664 78.3378 73.2666 77.1767 68.3593C76.8875 68.8454 76.7348 69.4262 76.6675 70.0327C76.3781 72.6403 77.4515 75.8076 78.3769 76.8772C78.8588 77.4344 78.9715 78.2214 78.6651 78.8916C78.359 79.5614 77.6901 79.9911 76.9534 79.9911H65.716C65.1174 79.9911 64.6268 80.4793 64.6268 81.0779C64.6268 81.6756 65.1174 82.1645 65.716 82.1645H73.4628C74.5019 82.1645 75.3451 83.008 75.3451 84.0469C75.3451 85.0859 74.5019 85.9292 73.4628 85.9292H64.0917C63.4936 85.9292 63.0049 86.4179 63.0049 87.016C63.0049 87.6142 63.4936 88.1026 64.0917 88.1026H73.4628C74.5019 88.1026 75.3451 88.9462 75.3451 89.985C75.3451 91.0238 74.5019 91.8673 73.4628 91.8673H65.1122C64.5139 91.8673 64.0254 92.3567 64.0254 92.9542C64.0254 93.5525 64.5136 94.0433 65.1122 94.0433H73.4628C74.5019 94.0433 75.3451 94.8866 75.3451 95.9257C75.3451 96.9645 74.5019 97.808 73.4628 97.808H68.2209C67.6228 97.808 67.1341 98.2965 67.1341 98.8946C67.1341 99.4918 67.6228 99.9812 68.2209 99.9812H81.2696C85.3136 99.9812 87.7115 98.768 90.2355 97.8643V82.976ZM94.0002 80.5699V100.939H97.7256V80.5699H94.0002ZM45.7501 51.6304C44.7113 51.6304 43.8677 50.7869 43.8677 49.748C43.8677 48.709 44.7113 47.8657 45.7501 47.8657H64.0254C65.0644 47.8657 65.9077 48.709 65.9077 49.748C65.9077 50.7869 65.0644 51.6304 64.0254 51.6304H45.7501ZM24.2343 43.7158H35.3979C37.2355 43.7158 38.7369 45.2172 38.7369 47.0549V58.2184C38.7369 60.0558 37.2355 61.5572 35.3979 61.5572H24.2343C22.3969 61.5572 20.8955 60.0558 20.8955 58.2184V47.0549C20.8955 45.2172 22.3969 43.7158 24.2343 43.7158ZM24.6602 47.4805V57.7925H34.9722V47.4805H24.6602ZM24.2343 83.9029H35.3979C37.2339 83.9029 38.7369 85.4109 38.7369 87.2466V98.4104C38.7369 100.248 37.2355 101.749 35.3979 101.749H24.2343C22.3969 101.749 20.8955 100.248 20.8955 98.4104V87.2466C20.8955 85.4109 22.3986 83.9029 24.2343 83.9029ZM24.6602 97.9845H34.9722V87.6676H24.6602V97.9845ZM45.7501 57.4076C44.7113 57.4076 43.8677 56.564 43.8677 55.5252C43.8677 54.4864 44.7113 53.6429 45.7501 53.6429H57.647C58.6858 53.6429 59.5294 54.4864 59.5294 55.5252C59.5294 56.564 58.6858 57.4076 57.647 57.4076H45.7501ZM24.2343 63.8094H35.3979C37.2355 63.8094 38.7369 65.3109 38.7369 67.1483V78.3118C38.7369 80.1495 37.2355 81.6509 35.3979 81.6509H24.2343C22.3969 81.6509 20.8955 80.1495 20.8955 78.3118V67.1483C20.8955 65.3109 22.3969 63.8094 24.2343 63.8094ZM24.6602 67.5742V77.8862H34.9722V67.5742H24.6602Z" fill="#B7BCC3"/>
<line x1="27.0464" y1="95.8158" x2="32.6464" y2="90.2158" stroke="#B7BCC3"/>
<line x1="26.3536" y1="90.2158" x2="31.9536" y2="95.8158" stroke="#B7BCC3"/>
<line x1="27.0464" y1="75.8158" x2="32.6464" y2="70.2158" stroke="#B7BCC3"/>
<line x1="26.3536" y1="70.2158" x2="31.9536" y2="75.8158" stroke="#B7BCC3"/>
<line x1="27.0464" y1="55.8158" x2="32.6464" y2="50.2158" stroke="#B7BCC3"/>
<line x1="26.3536" y1="50.2158" x2="31.9536" y2="55.8158" stroke="#B7BCC3"/>
</svg>
