<svg width="120" height="116" viewBox="0 0 120 116" fill="none" xmlns="http://www.w3.org/2000/svg">
<path d="M112.5 35.5H89.55C90.3054 31.1878 90.1079 26.7624 88.9713 22.5347C87.8347 18.3069 85.7865 14.3791 82.9706 11.027C80.1547 7.67487 76.6392 4.97969 72.671 3.13061C68.7028 1.28153 64.3779 0.323364 60 0.323364C55.6221 0.323364 51.2972 1.28153 47.329 3.13061C43.3608 4.97969 39.8453 7.67487 37.0294 11.027C34.2135 14.3791 32.1653 18.3069 31.0287 22.5347C29.8921 26.7624 29.6946 31.1878 30.45 35.5H7.5C5.51088 35.5 3.60322 36.2902 2.1967 37.6967C0.790176 39.1032 0 41.0109 0 43L0 108C0 109.989 0.790176 111.897 2.1967 113.303C3.60322 114.71 5.51088 115.5 7.5 115.5H112.5C114.489 115.5 116.397 114.71 117.803 113.303C119.21 111.897 120 109.989 120 108V43C120 41.0109 119.21 39.1032 117.803 37.6967C116.397 36.2902 114.489 35.5 112.5 35.5ZM5 43.725L39.775 72.175L5 106.975V43.725ZM43.675 75.5C49.175 80 52.675 83.725 60 83.725C67.325 83.725 70.85 79.975 76.325 75.5L111.475 110.5H8.525L43.675 75.5ZM80.225 72.3L115 43.725V106.975L80.225 72.3ZM60 5.49999C64.9445 5.49999 69.778 6.96622 73.8893 9.71325C78.0005 12.4603 81.2048 16.3648 83.097 20.9329C84.9892 25.5011 85.4843 30.5277 84.5196 35.3773C83.555 40.2268 81.174 44.6814 77.6777 48.1777C74.1814 51.674 69.7268 54.055 64.8773 55.0196C60.0277 55.9843 55.0011 55.4892 50.4329 53.597C45.8648 51.7048 41.9603 48.5005 39.2133 44.3893C36.4662 40.278 35 35.4445 35 30.5C35 23.8696 37.6339 17.5107 42.3223 12.8223C47.0107 8.13391 53.3696 5.49999 60 5.49999ZM88.25 40.5H111.05L67.925 75.8C65.6903 77.6321 62.8898 78.6333 60 78.6333C57.1102 78.6333 54.3097 77.6321 52.075 75.8L8.95 40.5H31.75C33.832 46.3255 37.6641 51.3649 42.7213 54.928C47.7785 58.4911 53.8136 60.4036 60 60.4036C66.1864 60.4036 72.2215 58.4911 77.2787 54.928C82.3359 51.3649 86.168 46.3255 88.25 40.5Z" fill="#B7BCC3"/>
<path d="M56.125 22.725L57.5 22.05V43C57.5 43.663 57.7634 44.2989 58.2322 44.7677C58.7011 45.2366 59.337 45.5 60 45.5C60.663 45.5 61.2989 45.2366 61.7678 44.7677C62.2366 44.2989 62.5 43.663 62.5 43C62.5 16.475 62.975 16.9 61.325 15.875C59.675 14.85 58.825 15.75 53.825 18.375C53.3637 18.7365 53.0441 19.2487 52.9221 19.8219C52.8 20.3951 52.8832 20.993 53.1572 21.5111C53.4311 22.0293 53.8784 22.4347 54.4208 22.6565C54.9633 22.8784 55.5665 22.9026 56.125 22.725Z" fill="#B7BCC3"/>
</svg>
