<svg width="112" height="120" viewBox="0 0 112 120" fill="none" xmlns="http://www.w3.org/2000/svg">
<path d="M69.8125 65.6257C68.777 65.6257 67.9375 66.4652 67.9375 67.5007V101.25H4.1875V18.75H24.8125C25.848 18.75 26.6875 17.9105 26.6875 16.875C26.6875 15.8395 25.848 15 24.8125 15H4.1875V13.125C4.1875 7.95563 8.39313 3.75 13.5625 3.75H58.5625C59.598 3.75 60.4375 2.91047 60.4375 1.875C60.4375 0.839531 59.598 0 58.5625 0H13.5625C6.32547 0 0.4375 5.88797 0.4375 13.125V106.875C0.4375 114.112 6.32547 120 13.5625 120H58.5625C65.7995 120 71.6875 114.112 71.6875 106.875V67.5007C71.6875 66.4652 70.848 65.6257 69.8125 65.6257ZM58.5625 116.25H13.5625C8.39313 116.25 4.1875 112.044 4.1875 106.875V105H67.9375V106.875C67.9375 112.044 63.7319 116.25 58.5625 116.25Z" fill="#B7BCC3"/>
<path d="M39.8125 108.75H32.3125C31.277 108.75 30.4375 109.59 30.4375 110.625C30.4375 111.66 31.277 112.5 32.3125 112.5H39.8125C40.848 112.5 41.6875 111.66 41.6875 110.625C41.6875 109.59 40.848 108.75 39.8125 108.75Z" fill="#B7BCC3"/>
<path d="M23.4859 8.04844C23.1367 8.39766 22.9375 8.88281 22.9375 9.375C22.9375 9.86719 23.1367 10.3523 23.4859 10.7016C23.8352 11.0508 24.318 11.25 24.8125 11.25C25.307 11.25 25.7898 11.0508 26.1391 10.7016C26.4883 10.3523 26.6875 9.86953 26.6875 9.375C26.6875 8.88047 26.4883 8.39766 26.1391 8.04844C25.7898 7.69922 25.307 7.5 24.8125 7.5C24.318 7.5 23.8352 7.69922 23.4859 8.04844Z" fill="#B7BCC3"/>
<path d="M41.6875 31.875H52.9375C53.973 31.875 54.8125 31.0355 54.8125 30C54.8125 28.9645 53.973 28.125 52.9375 28.125H41.6875C40.652 28.125 39.8125 28.9645 39.8125 30C39.8125 31.0355 40.652 31.875 41.6875 31.875Z" fill="#B7BCC3"/>
<path d="M90.4375 28.125H60.4375C59.402 28.125 58.5625 28.9645 58.5625 30C58.5625 31.0355 59.402 31.875 60.4375 31.875H90.4375C91.473 31.875 92.3125 31.0355 92.3125 30C92.3125 28.9645 91.473 28.125 90.4375 28.125Z" fill="#B7BCC3"/>
<path d="M90.4375 37.5H79.1875C78.152 37.5 77.3125 38.3395 77.3125 39.375C77.3125 40.4105 78.152 41.25 79.1875 41.25H90.4375C91.473 41.25 92.3125 40.4105 92.3125 39.375C92.3125 38.3395 91.473 37.5 90.4375 37.5Z" fill="#B7BCC3"/>
<path d="M41.6875 41.25H71.6875C72.723 41.25 73.5625 40.4105 73.5625 39.375C73.5625 38.3395 72.723 37.5 71.6875 37.5H41.6875C40.652 37.5 39.8125 38.3395 39.8125 39.375C39.8125 40.4105 40.652 41.25 41.6875 41.25Z" fill="#B7BCC3"/>
<path d="M90.4375 18.75H41.6875C40.652 18.75 39.8125 19.5895 39.8125 20.625C39.8125 21.6605 40.652 22.5 41.6875 22.5H90.4375C91.473 22.5 92.3125 21.6605 92.3125 20.625C92.3125 19.5895 91.473 18.75 90.4375 18.75Z" fill="#B7BCC3"/>
<path d="M90.4375 46.875H41.6875C40.652 46.875 39.8125 47.7145 39.8125 48.75C39.8125 49.7855 40.652 50.625 41.6875 50.625H90.4375C91.473 50.625 92.3125 49.7855 92.3125 48.75C92.3125 47.7145 91.473 46.875 90.4375 46.875Z" fill="#B7BCC3"/>
<path d="M42.7305 73.1085L91.4559 71.559C98.6892 71.329 104.387 65.2569 104.157 58.0235L103.263 29.9127C103.053 23.3153 97.9839 17.9955 91.6059 17.2854L91.3879 10.432C91.3395 8.91051 90.3881 7.58024 88.9641 7.04281C88.4913 6.86439 88.0003 6.78597 87.5166 6.80135C86.5432 6.8323 85.601 7.24355 84.9052 7.9851L75.8329 17.6533L41.0022 18.761C33.7688 18.991 28.071 25.0632 28.301 32.2965L29.1949 60.4073C29.425 67.6407 35.4971 73.3385 42.7305 73.1085ZM32.0491 32.1773C31.8848 27.0106 35.9546 22.6734 41.1214 22.5091L76.7284 21.3768C77.2255 21.361 77.6959 21.1483 78.0361 20.7858L87.6399 10.5526L87.9131 19.1451C87.946 20.1801 88.8118 20.9925 89.8468 20.9596C95.0135 20.7953 99.3507 24.8651 99.515 30.0319L100.409 58.1427C100.573 63.3094 96.5034 67.6466 91.3367 67.8109L42.6113 69.3604C37.4445 69.5247 33.1074 65.4549 32.943 60.2881L32.0491 32.1773Z" fill="#B7BCC3"/>
</svg>
