<svg width="108" height="114" viewBox="0 0 108 114" fill="none" xmlns="http://www.w3.org/2000/svg">
<path d="M96.9441 92.6372C99.1496 92.6372 100.944 90.8429 100.944 88.6375V45.8345C100.944 44.9122 100.196 44.1645 99.274 44.1645C98.3515 44.1645 97.6041 44.9122 97.6041 45.8345V88.6377C97.6041 89.0015 97.3082 89.2976 96.9441 89.2976H11.0558C10.692 89.2976 10.3959 89.0015 10.3959 88.6377V25.3626C10.3959 24.9987 10.692 24.7026 11.0558 24.7026H96.9444C97.3084 24.7026 97.6043 24.9987 97.6043 25.3626V38.0415C97.6043 38.9637 98.3518 39.7114 99.2742 39.7114C100.197 39.7114 100.944 38.9637 100.944 38.0415V25.3626C100.944 23.1571 99.1498 21.3628 96.9444 21.3628H89.291V8.08465C89.291 3.62685 85.6644 0 81.2066 0H26.7936C22.3358 0 18.709 3.62685 18.709 8.08465V21.3628H11.0558C8.85042 21.3628 7.05603 23.1571 7.05603 25.3626V88.6377C7.05603 90.8431 8.85042 92.6375 11.0558 92.6375H18.709V105.916C18.709 110.373 22.3358 114 26.7936 114H81.2064C85.6642 114 89.291 110.373 89.291 105.916V92.6375H96.9441V92.6372ZM58.6453 3.33984V5.63677C58.6453 6.86694 57.6444 7.868 56.414 7.868H51.5859C50.3558 7.868 49.3547 6.86716 49.3547 5.63677V3.33984H58.6453ZM22.0488 8.08465C22.0488 5.46844 24.1774 3.33984 26.7936 3.33984H46.0151V5.63677C46.0151 8.70853 48.5142 11.2078 51.5862 11.2078H56.4142C59.486 11.2078 61.9853 8.70875 61.9853 5.63677V3.33984H81.2068C83.823 3.33984 85.9516 5.46844 85.9516 8.08465V21.3628H22.0493V8.08465H22.0488ZM85.9512 102.792H68.6973C67.7748 102.792 67.0274 103.54 67.0274 104.462C67.0274 105.385 67.7748 106.132 68.6973 106.132H85.9402C85.8258 108.648 83.7495 110.66 81.2066 110.66H26.7936C24.2504 110.66 22.1742 108.648 22.0597 106.132H60.9041C61.8266 106.132 62.574 105.385 62.574 104.462C62.574 103.54 61.8266 102.792 60.9041 102.792H22.0488V92.6375H85.9512V102.792Z" fill="#B7BCC3"/>
<path d="M104.117 15.0015H92.9127C91.9903 15.0015 91.2428 15.7491 91.2428 16.6714C91.2428 17.5936 91.9903 18.3413 92.9127 18.3413H103.966V29.3942C103.966 30.3164 104.713 31.0641 105.636 31.0641C106.558 31.0641 107.305 30.3164 107.305 29.3942V18.1897C107.305 16.4316 105.875 15.0015 104.117 15.0015Z" fill="#B7BCC3"/>
<path d="M105.635 82.936C104.713 82.936 103.965 83.6837 103.965 84.606V95.6588H92.9125C91.99 95.6588 91.2426 96.4065 91.2426 97.3288C91.2426 98.251 91.99 98.9987 92.9125 98.9987H104.117C105.875 98.9987 107.305 97.5683 107.305 95.8102V84.606C107.305 83.6837 106.558 82.936 105.635 82.936Z" fill="#B7BCC3"/>
<path d="M2.36466 31.0639C3.28691 31.0639 4.03458 30.3162 4.03458 29.394V18.3413H15.0875C16.0097 18.3413 16.7574 17.5936 16.7574 16.6714C16.7574 15.7491 16.0097 15.0015 15.0875 15.0015H3.88296C2.12486 15.0015 0.694519 16.4318 0.694519 18.1899V29.3942C0.694742 30.3162 1.4422 31.0639 2.36466 31.0639Z" fill="#B7BCC3"/>
<path d="M15.0873 95.6586H4.03461V84.6057C4.03461 83.6835 3.28693 82.9358 2.36469 82.9358C1.44244 82.9358 0.694763 83.6835 0.694763 84.6057V95.81C0.694763 97.5681 2.12511 98.9984 3.8832 98.9984H15.0875C16.0097 98.9984 16.7574 98.2508 16.7574 97.3285C16.7574 96.4063 16.0095 95.6586 15.0873 95.6586Z" fill="#B7BCC3"/>
<path d="M46.6868 29.0908H27.761C26.8388 29.0908 26.0911 29.8385 26.0911 30.7607V49.6865C26.0911 50.6088 26.8388 51.3564 27.761 51.3564H46.6868C47.6091 51.3564 48.3568 50.6088 48.3568 49.6865V30.7607C48.3568 29.8385 47.6091 29.0908 46.6868 29.0908ZM45.0169 48.0166H29.431V32.4307H45.0169V48.0166Z" fill="#B7BCC3"/>
<path d="M33.7728 45.345H40.6751C41.5974 45.345 42.345 44.5973 42.345 43.675V36.7727C42.345 35.8505 41.5974 35.1028 40.6751 35.1028H33.7728C32.8505 35.1028 32.1028 35.8505 32.1028 36.7727V43.675C32.1028 44.5973 32.8505 45.345 33.7728 45.345ZM35.4427 38.4426H39.0052V42.0051H35.4427V38.4426Z" fill="#B7BCC3"/>
<path d="M46.6868 62.6433H27.761C26.8388 62.6433 26.0911 63.391 26.0911 64.3132V83.239C26.0911 84.1613 26.8388 84.9089 27.761 84.9089H46.6868C47.6091 84.9089 48.3568 84.1613 48.3568 83.239V64.3132C48.3568 63.391 47.6091 62.6433 46.6868 62.6433ZM45.0169 81.5691H29.431V65.9832H45.0169V81.5691Z" fill="#B7BCC3"/>
<path d="M33.7728 78.8972H40.6751C41.5974 78.8972 42.345 78.1495 42.345 77.2273V70.325C42.345 69.4027 41.5974 68.655 40.6751 68.655H33.7728C32.8505 68.655 32.1028 69.4027 32.1028 70.325V77.2273C32.1028 78.1495 32.8505 78.8972 33.7728 78.8972ZM35.4427 71.9949H39.0052V75.5574H35.4427V71.9949Z" fill="#B7BCC3"/>
<path d="M80.2391 29.0908H61.3134C60.3909 29.0908 59.6434 29.8385 59.6434 30.7607V49.6865C59.6434 50.6088 60.3909 51.3564 61.3134 51.3564H80.2391C81.1616 51.3564 81.9091 50.6088 81.9091 49.6865V30.7607C81.9091 29.8385 81.1616 29.0908 80.2391 29.0908ZM78.5692 48.0166H62.9833V32.4307H78.5692V48.0166Z" fill="#B7BCC3"/>
<path d="M67.3251 45.345H74.2274C75.1499 45.345 75.8973 44.5973 75.8973 43.675V36.7727C75.8973 35.8505 75.1499 35.1028 74.2274 35.1028H67.3251C66.4026 35.1028 65.6552 35.8505 65.6552 36.7727V43.675C65.6552 44.5973 66.4026 45.345 67.3251 45.345ZM68.995 38.4426H72.5575V42.0051H68.995V38.4426Z" fill="#B7BCC3"/>
<path d="M80.2391 72.417H70.7762C69.8538 72.417 69.1063 73.1647 69.1063 74.0869V83.239C69.1063 84.1612 69.8538 84.9089 70.7762 84.9089C71.6987 84.9089 72.4462 84.1612 72.4462 83.239V75.7568H80.2391C81.1616 75.7568 81.9091 75.0092 81.9091 74.0869C81.9091 73.1647 81.1616 72.417 80.2391 72.417Z" fill="#B7BCC3"/>
<path d="M75.9196 62.8381V66.4993C75.9196 67.4215 76.6671 68.1692 77.5895 68.1692C78.512 68.1692 79.2595 67.4215 79.2595 66.4993V62.8381C79.2595 61.9159 78.512 61.1682 77.5895 61.1682C76.6671 61.1682 75.9196 61.9159 75.9196 62.8381Z" fill="#B7BCC3"/>
<path d="M62.741 78.3103H59.6899C58.7675 78.3103 58.02 79.058 58.02 79.9802C58.02 80.9025 58.7675 81.6501 59.6899 81.6501H62.741C63.6635 81.6501 64.4109 80.9025 64.4109 79.9802C64.4109 79.058 63.6635 78.3103 62.741 78.3103Z" fill="#B7BCC3"/>
<path d="M55.2246 35.1543C56.1471 35.1543 56.8945 34.4066 56.8945 33.4844C56.8945 32.5621 56.1471 31.8145 55.2246 31.8145H52.5527C51.6305 31.8145 50.8828 32.5621 50.8828 33.4844C50.8828 34.4066 51.6305 35.1543 52.5527 35.1543H55.2246Z" fill="#B7BCC3"/>
<path d="M54.4867 61.6669C53.5645 61.6669 52.8168 62.4145 52.8168 63.3368C52.8168 64.259 53.5645 65.0067 54.4867 65.0067H59.6899C60.6124 65.0067 61.3599 64.259 61.3599 63.3368V58.1478H67.9968C68.9193 58.1478 69.6667 57.4001 69.6667 56.4779C69.6667 55.5556 68.9193 54.8079 67.9968 54.8079H56.1566V45.8342C56.1566 44.912 55.4092 44.1643 54.4867 44.1643C53.5645 44.1643 52.8168 44.912 52.8168 45.8342V56.4779C52.8168 57.4001 53.5645 58.1478 54.4867 58.1478H58.02V61.6669H54.4867Z" fill="#B7BCC3"/>
<path d="M27.761 57.2227H30.8972C31.8194 57.2227 32.5671 56.475 32.5671 55.5527C32.5671 54.6305 31.8194 53.8828 30.8972 53.8828H27.761C26.8388 53.8828 26.0911 54.6305 26.0911 55.5527C26.0911 56.475 26.8386 57.2227 27.761 57.2227Z" fill="#B7BCC3"/>
<path d="M40.33 59.8213C41.2522 59.8213 41.9999 59.0736 41.9999 58.1514C41.9999 57.2291 41.2522 56.4814 40.33 56.4814H35.9993C35.0771 56.4814 34.3294 57.2291 34.3294 58.1514C34.3294 59.0736 35.0771 59.8213 35.9993 59.8213H40.33Z" fill="#B7BCC3"/>
<path d="M72.7058 66.4993C72.7058 65.577 71.9583 64.8294 71.0359 64.8294H68.995V62.4917C68.995 61.5695 68.2475 60.8218 67.3251 60.8218C66.4026 60.8218 65.6552 61.5695 65.6552 62.4917V66.4993C65.6552 67.4215 66.4026 68.1692 67.3251 68.1692H71.0359C71.9583 68.1692 72.7058 67.4215 72.7058 66.4993Z" fill="#B7BCC3"/>
<path d="M62.8993 69.0879H54C53.0778 69.0879 52.3301 69.8356 52.3301 70.7578V83.239C52.3301 84.1613 53.0778 84.909 54 84.909C54.9225 84.909 55.6699 84.1613 55.6699 83.239V72.4277H62.8993C63.8218 72.4277 64.5693 71.6801 64.5693 70.7578C64.5693 69.8356 63.8218 69.0879 62.8993 69.0879Z" fill="#B7BCC3"/>
<path d="M46.6868 54.0505C45.7646 54.0505 45.0169 54.7982 45.0169 55.7205V58.5037C45.0169 59.4259 45.7646 60.1736 46.6868 60.1736C47.6091 60.1736 48.3568 59.4259 48.3568 58.5037V55.7205C48.3568 54.7982 47.6091 54.0505 46.6868 54.0505Z" fill="#B7BCC3"/>
<path d="M78.6723 78.3103H76.6989C75.7764 78.3103 75.029 79.058 75.029 79.9802C75.029 80.9025 75.7764 81.6501 76.6989 81.6501H78.6723C79.5948 81.6501 80.3422 80.9025 80.3422 79.9802C80.3422 79.058 79.5946 78.3103 78.6723 78.3103Z" fill="#B7BCC3"/>
<path d="M76.7189 54.8081H74.2274C73.305 54.8081 72.5575 55.5558 72.5575 56.478C72.5575 57.4003 73.305 58.1479 74.2274 58.1479H76.7189C77.6414 58.1479 78.3889 57.4003 78.3889 56.478C78.3889 55.5558 77.6414 54.8081 76.7189 54.8081Z" fill="#B7BCC3"/>
</svg>
