<svg width="24" height="25" viewBox="0 0 24 25" fill="none" xmlns="http://www.w3.org/2000/svg">
<path d="M11.9688 22.2915C17.4916 22.2915 21.9688 17.8144 21.9688 12.2915C21.9688 6.76866 17.4916 2.2915 11.9688 2.2915C6.4459 2.2915 1.96875 6.76866 1.96875 12.2915C1.96875 17.8144 6.4459 22.2915 11.9688 22.2915Z" fill="#ECEEF1"/>
<path d="M14.9694 10.5216L12.0694 8.85162C11.3494 8.43162 10.4794 8.43162 9.75938 8.85162C9.03938 9.27162 8.60938 10.0116 8.60938 10.8516V14.2016C8.60938 15.0316 9.03938 15.7816 9.75938 16.2016C10.1194 16.4116 10.5194 16.5116 10.9094 16.5116C11.3094 16.5116 11.6994 16.4116 12.0594 16.2016L14.9594 14.5316C15.6794 14.1116 16.1094 13.3716 16.1094 12.5316C16.1294 11.6916 15.6994 10.9416 14.9694 10.5216Z" fill="#00ACEF"/>
</svg>
