<svg width="79" height="90" viewBox="0 0 79 90" fill="none" xmlns="http://www.w3.org/2000/svg">
<circle opacity="0.4" cx="57.9339" cy="21.0667" r="21.0667" fill="#D9F4FF"/>
<g clip-path="url(#clip0_2360_10466)">
<path d="M30.4424 54.8066H13.418C12.8213 54.8066 12.3379 55.2901 12.3379 55.8867C12.3379 56.4834 12.8213 56.9668 13.418 56.9668H30.4424C31.0391 56.9668 31.5225 56.4834 31.5225 55.8867C31.5225 55.2901 31.0389 54.8066 30.4424 54.8066Z" fill="#001B44"/>
<path d="M30.4424 62.0449H13.418C12.8213 62.0449 12.3379 62.5284 12.3379 63.125C12.3379 63.7216 12.8213 64.2051 13.418 64.2051H30.4424C31.0391 64.2051 31.5225 63.7216 31.5225 63.125C31.5225 62.5284 31.0389 62.0449 30.4424 62.0449Z" fill="#001B44"/>
<path d="M31.5225 70.3633C31.5225 69.7666 31.0391 69.2832 30.4424 69.2832H13.418C12.8213 69.2832 12.3379 69.7666 12.3379 70.3633C12.3379 70.9599 12.8213 71.4434 13.418 71.4434H30.4424C31.0389 71.4434 31.5225 70.9598 31.5225 70.3633Z" fill="#001B44"/>
<path d="M13.418 76.5215C12.8213 76.5215 12.3379 77.0049 12.3379 77.6016C12.3379 78.1982 12.8213 78.6816 13.418 78.6816H22.0407C22.6374 78.6816 23.1208 78.1982 23.1208 77.6016C23.1208 77.0049 22.6374 76.5215 22.0407 76.5215H13.418Z" fill="#001B44"/>
<path d="M70.5536 65.6532C70.1133 65.6532 69.7236 65.3691 69.5842 64.9463C69.3362 64.1954 69.0296 63.4569 68.673 62.7516C68.4774 62.3643 68.5554 61.8947 68.8676 61.5826C70.1069 60.3431 70.1069 58.3261 68.8676 57.0866L67.2437 55.4626C66.0042 54.2234 63.9873 54.2233 62.7474 55.463C62.4355 55.7748 61.9657 55.8527 61.5789 55.6573C60.8728 55.3003 60.1342 54.9939 59.3841 54.7462C58.9611 54.6066 58.6771 54.2169 58.6771 53.7767C58.6771 52.0238 57.251 50.5977 55.4979 50.5977H53.2015C51.4485 50.5977 50.0224 52.0238 50.0224 53.7767C50.0224 54.2171 49.7382 54.6068 49.3156 54.7462C48.5653 54.9939 47.8266 55.3005 47.1207 55.6573C46.7336 55.8529 46.264 55.775 45.9516 55.4626C44.7121 54.2236 42.6953 54.2231 41.4556 55.4628L39.8319 57.0865C38.5924 58.326 38.5924 60.343 39.8322 61.5829C40.1441 61.8947 40.222 62.3643 40.0265 62.7514C39.6695 63.4578 39.3629 64.1964 39.1153 64.9463C38.9758 65.3692 38.5861 65.6532 38.1458 65.6532C36.3929 65.6532 34.9668 67.0794 34.9668 68.8323V71.1288C34.9668 72.8817 36.3929 74.3078 38.1458 74.3078C38.5862 74.3078 38.9759 74.5919 39.1153 75.0148C39.363 75.7651 39.6696 76.5037 40.0265 77.2098C40.222 77.5969 40.144 78.0665 39.832 78.3786C38.5895 79.6208 38.5892 81.632 39.8319 82.8744L41.4556 84.4984C42.6951 85.7379 44.7121 85.7379 45.9521 84.4981C46.2637 84.1864 46.7337 84.1084 47.1206 84.3039C47.8262 84.6606 48.5647 84.967 49.3153 85.2149C49.7384 85.3546 50.0224 85.7441 50.0224 86.1844C50.0224 87.9374 51.4485 89.3635 53.2015 89.3635H55.4979C57.251 89.3635 58.6771 87.9374 58.6771 86.1844C58.6771 85.744 58.9612 85.3544 59.3839 85.2149C60.1348 84.967 60.8733 84.6604 61.5789 84.3039C61.966 84.1083 62.4355 84.1859 62.7477 84.4984C63.9872 85.7379 66.0042 85.7378 67.2438 84.4983L68.8674 82.8746C70.1099 81.6323 70.1102 79.6211 68.8673 78.3784C68.5555 78.0665 68.4774 77.5967 68.673 77.2098C69.0296 76.5046 69.336 75.7661 69.5842 75.0148C69.7237 74.5918 70.1134 74.3078 70.5536 74.3078C72.3065 74.3078 73.7327 72.8817 73.7327 71.1288V68.8323C73.7327 67.0794 72.3065 65.6532 70.5536 65.6532ZM71.5725 71.1288C71.5725 71.6906 71.1154 72.1477 70.5536 72.1477C69.1792 72.1477 67.9652 73.0277 67.5327 74.3375C67.3183 74.987 67.0533 75.6254 66.745 76.2353C66.1273 77.4572 66.3661 78.9324 67.3399 79.9062C67.7381 80.3044 67.7382 80.9487 67.3398 81.3472L65.716 82.9709C65.319 83.3682 64.6743 83.3704 64.2748 82.9706C63.3011 81.9973 61.826 81.7582 60.6041 82.3761C59.9942 82.6845 59.3557 82.9493 58.7063 83.1637C57.3966 83.5963 56.5167 84.8104 56.5167 86.1846C56.5167 86.7464 56.0594 87.2037 55.4976 87.2037H53.2013C52.6395 87.2037 52.1822 86.7464 52.1822 86.1846C52.1822 84.8104 51.3023 83.5963 49.9923 83.1637C49.3432 82.9495 48.7048 82.6845 48.0946 82.3761C47.642 82.1473 47.155 82.0361 46.6712 82.0361C45.8488 82.0361 45.0369 82.3579 44.4238 82.9709C44.2314 83.1635 43.9755 83.2694 43.7033 83.2694C43.4312 83.2694 43.1752 83.1635 42.9829 82.9711L41.359 81.347C40.9644 80.9525 40.9573 80.308 41.3594 79.9058C42.3328 78.9323 42.5716 77.4572 41.9539 76.2353C41.6453 75.6248 41.3803 74.9864 41.1662 74.3378C40.7338 73.0277 39.5197 72.1477 38.1453 72.1477C37.5835 72.1477 37.1264 71.6906 37.1264 71.1288V68.8323C37.1264 68.2705 37.5835 67.8134 38.1453 67.8134C39.5197 67.8134 40.7337 66.9333 41.1662 65.6234C41.38 64.9751 41.6451 64.3367 41.9539 63.7258C42.5716 62.5037 42.3326 61.0286 41.3591 60.055C40.9618 59.6576 40.9618 59.0113 41.3591 58.6139L42.9827 56.9901C43.38 56.593 44.0265 56.5927 44.4241 56.9903C45.3973 57.9636 46.8723 58.2028 48.0948 57.585C48.7052 57.2764 49.3436 57.0114 49.9924 56.7973C51.3022 56.3648 52.1822 55.1508 52.1822 53.7764C52.1822 53.2146 52.6395 52.7575 53.2013 52.7575H55.4976C56.0594 52.7575 56.5167 53.2146 56.5167 53.7764C56.5167 55.1508 57.3967 56.3648 58.7066 56.7973C59.3552 57.0113 59.9936 57.2764 60.6041 57.585C61.8265 58.2028 63.3016 57.9638 64.2749 56.9901C64.6724 56.5925 65.3189 56.5928 65.716 56.99L67.3398 58.614C67.7371 59.011 67.7392 59.6558 67.3395 60.0553C66.3662 61.0286 66.1273 62.5037 66.745 63.7259C67.0533 64.3358 67.3183 64.9744 67.5327 65.6236C67.9652 66.9333 69.1792 67.8134 70.5536 67.8134C71.1154 67.8134 71.5725 68.2705 71.5725 68.8323V71.1288Z" fill="#001B44"/>
<path d="M49.7626 36.3691H39.3912C38.7946 36.3691 38.3111 36.8526 38.3111 37.4492C38.3111 38.0458 38.7946 38.5293 39.3912 38.5293H49.7626C51.1805 38.5293 52.334 37.3756 52.334 35.9577V33.0363C52.334 31.6184 51.1803 30.4648 49.7626 30.4648H31.9328C30.5149 30.4648 29.3613 31.6185 29.3613 33.0363V35.9577C29.3613 37.3758 30.515 38.5293 31.9328 38.5293H34.3419C34.9386 38.5293 35.422 38.0458 35.422 37.4492C35.422 36.8526 34.9386 36.3691 34.3419 36.3691H31.9328C31.706 36.3691 31.5215 36.1845 31.5215 35.9577V33.0363C31.5215 32.8095 31.706 32.625 31.9328 32.625H49.7626C49.9894 32.625 50.1739 32.8095 50.1739 33.0363V35.9577C50.1739 36.1845 49.9894 36.3691 49.7626 36.3691Z" fill="#001B44"/>
<path d="M46.8513 87.2044H10.3325C9.22142 87.2044 8.31761 86.3006 8.31761 85.1895V39.8475C8.31761 39.5888 8.34756 39.3347 8.40416 39.0885H18.945C21.247 39.0885 23.1199 37.2156 23.1199 34.9136V24.3729C23.366 24.3163 23.62 24.2864 23.8789 24.2864H54.3389C55.4499 24.2864 56.3537 25.1902 56.3537 26.3012V47.4103C56.3537 48.0069 56.8372 48.4903 57.4338 48.4903C58.0304 48.4903 58.5139 48.0069 58.5139 47.4103V26.3012C58.5139 23.9992 56.6409 22.1262 54.3389 22.1262H52.3563V20.1438C52.3563 17.8417 50.4834 15.9688 48.1814 15.9688H4.17486C1.87286 15.9688 0 17.8417 0 20.1438V79.0321C0 81.3341 1.87286 83.2071 4.17486 83.2071H6.15745V85.1895C6.15745 87.4915 8.03045 89.3645 10.3325 89.3645H46.8513C47.448 89.3645 47.9314 88.8811 47.9314 88.2844C47.9314 87.6878 47.448 87.2044 46.8513 87.2044ZM20.9597 34.9138C20.9597 36.0246 20.0559 36.9285 18.945 36.9285H9.84527L20.9597 25.8139V34.9138ZM6.15745 39.8475V81.0469H4.17486C3.06397 81.0469 2.16016 80.1431 2.16016 79.0321V20.1438C2.16016 19.0327 3.06397 18.1289 4.17486 18.1289H48.1813C49.2922 18.1289 50.196 19.0327 50.196 20.1438V22.1262H23.8788C22.4044 22.1262 21.0182 22.7004 19.9755 23.743L7.77426 35.9446C6.73162 36.9869 6.15745 38.373 6.15745 39.8475Z" fill="#001B44"/>
<path d="M54.3508 58.4258C47.9789 58.4258 42.7949 63.6097 42.7949 69.9816C42.7949 76.3508 47.982 81.5374 54.3508 81.5374C60.7192 81.5374 65.9067 76.3512 65.9067 69.9816C65.9067 63.6097 60.7228 58.4258 54.3508 58.4258ZM54.3508 79.3774C51.7156 79.3774 49.332 78.2855 47.6242 76.5324C48.6527 74.9263 50.2172 73.7371 52.0418 73.1873C52.7318 73.5526 53.5172 73.7604 54.3508 73.7604C55.1843 73.7604 55.9699 73.5525 56.6597 73.1871C58.4843 73.737 60.0487 74.9262 61.0773 76.5322C59.3697 78.2855 56.9859 79.3774 54.3508 79.3774ZM51.5597 68.8091C51.5597 67.27 52.8117 66.018 54.3508 66.018C55.8899 66.018 57.142 67.27 57.142 68.8091C57.142 70.3483 55.8899 71.6003 54.3508 71.6003C52.8119 71.6003 51.5597 70.3481 51.5597 68.8091ZM62.4538 74.7295C61.4135 73.3489 60.04 72.2591 58.465 71.5604C58.9932 70.7729 59.3021 69.8265 59.3021 68.8091C59.3021 66.0789 57.0809 63.8579 54.3508 63.8579C51.6206 63.8579 49.3995 66.0789 49.3995 68.8091C49.3995 69.8265 49.7083 70.7729 50.2367 71.5604C48.6616 72.2593 47.2882 73.349 46.2479 74.7295C45.4277 73.3352 44.9551 71.713 44.9551 69.9816C44.9551 64.8007 49.17 60.5859 54.3508 60.5859C59.5315 60.5859 63.7466 64.8008 63.7466 69.9816C63.7466 71.713 63.2739 73.3352 62.4538 74.7295Z" fill="#001B44"/>
</g>
<defs>
<clipPath id="clip0_2360_10466">
<rect width="73.7333" height="73.7333" fill="white" transform="translate(0 15.8008)"/>
</clipPath>
</defs>
</svg>
