<svg width="79" height="90" viewBox="0 0 79 90" fill="none" xmlns="http://www.w3.org/2000/svg">
<ellipse opacity="0.4" cx="57.9339" cy="21.1565" rx="21.0667" ry="21.0667" fill="#D9F4FF"/>
<path d="M49.9626 61.8372C48.8554 60.73 47.0629 60.7301 45.9557 61.8374C41.0076 66.7972 41.2242 66.5403 41.0819 66.7422C39.0965 68.3832 34.3967 67.2435 28.9669 61.8134C25.5501 58.3966 24.2128 55.6675 23.6926 53.9798C23.3449 52.8516 22.9484 50.7717 24.2005 49.5197C24.2745 49.4457 24.3379 49.3651 24.3922 49.2803L28.8955 44.7771C30.0027 43.6698 30.0033 41.8772 28.8955 40.7698L17.5753 29.4496C16.468 28.3425 14.6756 28.3422 13.5681 29.4496C13.4204 29.5973 8.53854 34.4792 8.84936 34.1682C4.81317 38.2046 3.40188 43.447 4.76794 49.3291C6.28316 55.8531 11.1844 63.2938 19.3354 71.445C27.3553 79.4648 34.8815 84.2773 41.7052 85.7491C47.2242 86.9396 52.6574 85.8854 56.6121 81.9309C56.6863 81.8567 56.7499 81.7757 56.8041 81.6909L61.3068 77.1882C62.4115 76.0835 62.4115 74.2858 61.3068 73.1811L49.9626 61.8372ZM15.5699 31.4551L26.8901 42.7719L23.174 46.4881L11.857 35.1709L15.5699 31.4551ZM42.3032 82.9772C36.0212 81.6223 28.9685 77.0677 21.3408 69.4399C12.4863 60.5855 1.94622 46.9044 9.90077 37.2252L21.324 48.6485C20.3726 50.2815 20.2436 52.4172 20.9826 54.8151C21.8641 57.6754 23.9317 60.7888 26.9617 63.8188C31.174 68.0311 35.4981 70.2837 38.9333 70.2837C40.1216 70.2837 41.2033 70.0131 42.1374 69.4618L53.5445 80.8689C50.5858 83.2019 46.7314 83.9321 42.3032 82.9772ZM55.5854 78.8993L44.2446 67.5584L47.9575 63.8426L59.3017 75.1833L55.5854 78.8993Z" fill="#001B44"/>
<path d="M42.539 28.6523C43.3222 28.6523 43.957 28.0175 43.957 27.2344C43.957 26.4512 43.3222 25.8164 42.539 25.8164C41.7559 25.8164 41.1211 26.4512 41.1211 27.2344C41.1211 28.0175 41.7559 28.6523 42.539 28.6523Z" fill="#001B44"/>
<path d="M14.1797 24.3984C14.9628 24.3984 15.5976 23.7636 15.5976 22.9804C15.5976 22.1973 14.9628 21.5625 14.1797 21.5625C13.3966 21.5625 12.7617 22.1973 12.7617 22.9804C12.7617 23.7636 13.3966 24.3984 14.1797 24.3984Z" fill="#001B44"/>
<path d="M8.50779 66.9375C9.2909 66.9375 9.92574 66.3026 9.92574 65.5195C9.92574 64.7364 9.2909 64.1016 8.50779 64.1016C7.72468 64.1016 7.08984 64.7364 7.08984 65.5195C7.08984 66.3026 7.72468 66.9375 8.50779 66.9375Z" fill="#001B44"/>
<path d="M21.2695 82.5351C22.0526 82.5351 22.6875 81.9003 22.6875 81.1172C22.6875 80.3341 22.0526 79.6992 21.2695 79.6992C20.4864 79.6992 19.8516 80.3341 19.8516 81.1172C19.8516 81.9003 20.4864 82.5351 21.2695 82.5351Z" fill="#001B44"/>
<path d="M66.6445 76.8632C67.4276 76.8632 68.0625 76.2284 68.0625 75.4453C68.0625 74.6622 67.4276 74.0273 66.6445 74.0273C65.8614 74.0273 65.2266 74.6622 65.2266 75.4453C65.2266 76.2284 65.8614 76.8632 66.6445 76.8632Z" fill="#001B44"/>
<path d="M63.8086 24.3984C64.5917 24.3984 65.2265 23.7636 65.2265 22.9804C65.2265 22.1973 64.5917 21.5625 63.8086 21.5625C63.0255 21.5625 62.3906 22.1973 62.3906 22.9804C62.3906 23.7636 63.0255 24.3984 63.8086 24.3984Z" fill="#001B44"/>
<path d="M55.3008 39.9961C56.0839 39.9961 56.7187 39.3612 56.7187 38.5781C56.7187 37.795 56.0839 37.1602 55.3008 37.1602C54.5176 37.1602 53.8828 37.795 53.8828 38.5781C53.8828 39.3612 54.5176 39.9961 55.3008 39.9961Z" fill="#001B44"/>
<path d="M29.7773 51.3398C30.5604 51.3398 31.1953 50.705 31.1953 49.9219C31.1953 49.1387 30.5604 48.5039 29.7773 48.5039C28.9942 48.5039 28.3594 49.1387 28.3594 49.9219C28.3594 50.705 28.9942 51.3398 29.7773 51.3398Z" fill="#001B44"/>
<path d="M35.4492 61.2656C36.2323 61.2656 36.8671 60.6307 36.8671 59.8476C36.8671 59.0645 36.2323 58.4297 35.4492 58.4297C34.6661 58.4297 34.0312 59.0645 34.0312 59.8476C34.0312 60.6307 34.6661 61.2656 35.4492 61.2656Z" fill="#001B44"/>
<path d="M48.2109 22.9804C48.994 22.9804 49.6289 22.3456 49.6289 21.5625C49.6289 20.7794 48.994 20.1445 48.2109 20.1445C47.4278 20.1445 46.793 20.7794 46.793 21.5625C46.793 22.3456 47.4278 22.9804 48.2109 22.9804Z" fill="#001B44"/>
<path d="M61.6816 59.8477C59.7269 59.8477 58.1367 61.4379 58.1367 63.3925C58.1367 65.3472 59.7269 66.9374 61.6816 66.9374C63.6362 66.9374 65.2265 65.3472 65.2265 63.3925C65.2265 61.4379 63.6362 59.8477 61.6816 59.8477ZM61.6816 64.1015C61.2907 64.1015 60.9726 63.7835 60.9726 63.3925C60.9726 63.0016 61.2907 62.6836 61.6816 62.6836C62.0725 62.6836 62.3906 63.0016 62.3906 63.3925C62.3906 63.7835 62.0725 64.1015 61.6816 64.1015Z" fill="#001B44"/>
<path d="M27.6503 28.6522C29.605 28.6522 31.1952 27.062 31.1952 25.1074C31.1952 23.1527 29.605 21.5625 27.6503 21.5625C25.6957 21.5625 24.1055 23.1527 24.1055 25.1074C24.1055 27.062 25.6957 28.6522 27.6503 28.6522ZM27.6503 24.3984C28.0413 24.3984 28.3593 24.7164 28.3593 25.1074C28.3593 25.4983 28.0413 25.8163 27.6503 25.8163C27.2594 25.8163 26.9414 25.4983 26.9414 25.1074C26.9414 24.7164 27.2594 24.3984 27.6503 24.3984Z" fill="#001B44"/>
<path d="M17.0155 79.6992H8.50779C7.72466 79.6992 7.08984 80.3342 7.08984 81.1172C7.08984 81.9002 7.72466 82.5351 8.50779 82.5351H17.0155C17.7986 82.5351 18.4334 81.9002 18.4334 81.1172C18.4334 80.3342 17.7986 79.6992 17.0155 79.6992Z" fill="#001B44"/>
<path d="M14.1795 76.8633C14.1795 76.0803 13.5447 75.4453 12.7616 75.4453H5.67185C4.88872 75.4453 4.25391 76.0803 4.25391 76.8633C4.25391 77.6463 4.88872 78.2812 5.67185 78.2812H12.7616C13.5447 78.2812 14.1795 77.6463 14.1795 76.8633Z" fill="#001B44"/>
<path d="M68.062 31.4883H36.8672C36.084 31.4883 35.4492 32.1231 35.4492 32.9062V52.7575C35.4492 53.5405 36.084 54.1755 36.8672 54.1755H41.4015L39.8178 57.8708C39.5706 58.4476 39.732 59.1183 40.2144 59.5194C40.6973 59.9213 41.386 59.9569 41.9075 59.6092L50.0579 54.1756H68.062C68.845 54.1756 69.48 53.5406 69.48 52.7577V32.9062C69.48 32.1231 68.845 31.4883 68.062 31.4883ZM66.6441 51.3396H49.6287C49.3487 51.3396 49.0751 51.4224 48.8422 51.5778L44.3032 54.6037L44.855 53.3162C45.257 52.3782 44.5656 51.3397 43.5518 51.3397H38.2851V34.3242H66.6441V51.3396Z" fill="#001B44"/>
<path d="M42.539 39.9961H51.0467C51.8297 39.9961 52.4647 39.3612 52.4647 38.5781C52.4647 37.795 51.8297 37.1602 51.0467 37.1602H42.539C41.7561 37.1602 41.1211 37.795 41.1211 38.5781C41.1211 39.3612 41.7561 39.9961 42.539 39.9961Z" fill="#001B44"/>
<path d="M42.539 44.25H62.3903C63.1733 44.25 63.8083 43.6151 63.8083 42.832C63.8083 42.0489 63.1733 41.4141 62.3903 41.4141H42.539C41.7561 41.4141 41.1211 42.0489 41.1211 42.832C41.1211 43.6151 41.7561 44.25 42.539 44.25Z" fill="#001B44"/>
<path d="M42.539 48.5039H62.3903C63.1733 48.5039 63.8083 47.8691 63.8083 47.0859C63.8083 46.3028 63.1733 45.668 62.3903 45.668H42.539C41.7561 45.668 41.1211 46.3028 41.1211 47.0859C41.1211 47.8691 41.7561 48.5039 42.539 48.5039Z" fill="#001B44"/>
</svg>
