<svg width="97" height="85" viewBox="0 0 97 85" fill="none" xmlns="http://www.w3.org/2000/svg">
<circle opacity="0.4" cx="81" cy="16" r="16" fill="#D9F4FF"/>
<path d="M20 31.25C20.6904 31.25 21.25 30.6904 21.25 30C21.25 29.3096 20.6904 28.75 20 28.75C19.3096 28.75 18.75 29.3096 18.75 30C18.75 30.6904 19.3096 31.25 20 31.25Z" fill="#5D6878"/>
<path d="M32.5 31.25C33.1904 31.25 33.75 30.6904 33.75 30C33.75 29.3096 33.1904 28.75 32.5 28.75C31.8096 28.75 31.25 29.3096 31.25 30C31.25 30.6904 31.8096 31.25 32.5 31.25Z" fill="#5D6878"/>
<path d="M15 76.25H25V78.75H15V76.25Z" fill="#5D6878"/>
<path d="M6.25 76.25H8.75V78.75H6.25V76.25Z" fill="#5D6878"/>
<path d="M31.25 76.25H33.75V78.75H31.25V76.25Z" fill="#5D6878"/>
<path d="M33.75 68.75V38.75H6.25V68.75H33.75ZM31.25 66.25H8.75V51.25H18.75V41.25H31.25V66.25ZM16.25 41.25V48.75H8.75V41.25H16.25Z" fill="#5D6878"/>
<path d="M11.25 43.75H13.75V46.25H11.25V43.75Z" fill="#5D6878"/>
<path d="M28.75 51.25V48.75H23.75V43.75H21.25V51.25H28.75Z" fill="#5D6878"/>
<path d="M26.25 43.75H28.75V46.25H26.25V43.75Z" fill="#5D6878"/>
<path d="M16.25 58.75V53.75H11.25V56.25H13.75V58.75H16.25Z" fill="#5D6878"/>
<path d="M21.25 58.75H23.75V53.75H18.75V56.25H21.25V58.75Z" fill="#5D6878"/>
<path d="M26.25 61.25H21.25V63.75H28.75V55H26.25V61.25Z" fill="#5D6878"/>
<path d="M11.25 61.25H13.75V63.75H11.25V61.25Z" fill="#5D6878"/>
<path d="M16.25 61.25H18.75V63.75H16.25V61.25Z" fill="#5D6878"/>
<path d="M36.25 16.25H38.75V18.75H36.25V16.25Z" fill="#5D6878"/>
<path d="M56.25 21.25H48.75V16.25H46.25V23.75H56.25V21.25Z" fill="#5D6878"/>
<path d="M51.25 16.25H56.25V18.75H51.25V16.25Z" fill="#5D6878"/>
<path d="M48.75 31.25H51.25V26.25H41.25V28.75H48.75V31.25Z" fill="#5D6878"/>
<path d="M53.75 33.75H46.25V36.25H56.25V27.5H53.75V33.75Z" fill="#5D6878"/>
<path d="M78.75 19.4825L65.5175 6.25H26.25V23.75H7.5C4.05375 23.75 1.25 26.5537 1.25 30V77.5C1.25 80.9463 4.05375 83.75 7.5 83.75H32.5C35.5175 83.75 38.0425 81.5987 38.6237 78.75H78.75V19.4825ZM66.25 10.5175L74.4825 18.75H66.25V10.5175ZM16.25 30V26.25H23.75V30C23.75 32.0675 22.0675 33.75 20 33.75C17.9325 33.75 16.25 32.0675 16.25 30ZM36.25 36.25V71.25H3.75V36.25H36.25ZM33.75 23.8762V23.75H43.75V13.75H58.75V38.75H38.75V30C38.75 26.9825 36.5988 24.4575 33.75 23.8762ZM41.25 21.25H33.75V13.75H41.25V21.25ZM32.5 26.25C34.5675 26.25 36.25 27.9325 36.25 30V33.75H24.9675C25.7613 32.7025 26.25 31.4125 26.25 30V26.25H32.5ZM7.5 26.25H13.75V30C13.75 31.4125 14.2388 32.7025 15.0325 33.75H3.75V30C3.75 27.9325 5.4325 26.25 7.5 26.25ZM32.5 81.25H7.5C5.4325 81.25 3.75 79.5675 3.75 77.5V73.75H36.25V77.5C36.25 79.5675 34.5675 81.25 32.5 81.25ZM38.75 76.25V41.25H61.25V11.25H31.25V23.75H28.75V8.75H63.75V21.25H76.25V76.25H38.75Z" fill="#5D6878"/>
<path d="M41.25 31.25H43.75V36.25H41.25V31.25Z" fill="#5D6878"/>
<path d="M41.25 73.75H73.75V56.25H41.25V73.75ZM43.75 58.75H71.25V71.25H43.75V58.75Z" fill="#5D6878"/>
<path d="M62.5 61.25C60.4325 61.25 58.75 62.9325 58.75 65C58.75 67.0675 60.4325 68.75 62.5 68.75C64.5675 68.75 66.25 67.0675 66.25 65C66.25 62.9325 64.5675 61.25 62.5 61.25ZM62.5 66.25C61.8112 66.25 61.25 65.69 61.25 65C61.25 64.31 61.8112 63.75 62.5 63.75C63.1887 63.75 63.75 64.31 63.75 65C63.75 65.69 63.1887 66.25 62.5 66.25Z" fill="#5D6878"/>
<path d="M52.5 61.25C50.4325 61.25 48.75 62.9325 48.75 65C48.75 67.0675 50.4325 68.75 52.5 68.75C54.5675 68.75 56.25 67.0675 56.25 65C56.25 62.9325 54.5675 61.25 52.5 61.25ZM52.5 66.25C51.8112 66.25 51.25 65.69 51.25 65C51.25 64.31 51.8112 63.75 52.5 63.75C53.1887 63.75 53.75 64.31 53.75 65C53.75 65.69 53.1887 66.25 52.5 66.25Z" fill="#5D6878"/>
<path d="M41.25 43.75H43.75V46.25H41.25V43.75Z" fill="#5D6878"/>
<path d="M46.25 43.75H73.75V46.25H46.25V43.75Z" fill="#5D6878"/>
<path d="M41.25 48.75H73.75V51.25H41.25V48.75Z" fill="#5D6878"/>
<path d="M63.75 23.75H73.75V26.25H63.75V23.75Z" fill="#5D6878"/>
<path d="M63.75 28.75H73.75V31.25H63.75V28.75Z" fill="#5D6878"/>
<path d="M63.75 33.75H73.75V36.25H63.75V33.75Z" fill="#5D6878"/>
<path d="M63.75 38.75H73.75V41.25H63.75V38.75Z" fill="#5D6878"/>
</svg>
