<svg width="78" height="93" viewBox="0 0 78 93" fill="none" xmlns="http://www.w3.org/2000/svg">
<circle opacity="0.4" cx="62" cy="16.0005" r="16" fill="#D9F4FF"/>
<path d="M46.542 56.7505C45.8517 56.7505 45.292 57.3102 45.292 58.0005V80.5H2.79199V25.5H16.542C17.2323 25.5 17.792 24.9403 17.792 24.25C17.792 23.5597 17.2323 23 16.542 23H2.79199V21.75C2.79199 18.3038 5.59574 15.5 9.04199 15.5H39.042C39.7323 15.5 40.292 14.9403 40.292 14.25C40.292 13.5597 39.7323 13 39.042 13H9.04199C4.2173 13 0.291992 16.9253 0.291992 21.75V84.25C0.291992 89.0747 4.2173 93 9.04199 93H39.042C43.8667 93 47.792 89.0747 47.792 84.25V58.0005C47.792 57.3102 47.2323 56.7505 46.542 56.7505ZM39.042 90.5H9.04199C5.59574 90.5 2.79199 87.6963 2.79199 84.25V83H45.292V84.25C45.292 87.6963 42.4882 90.5 39.042 90.5Z" fill="#5D6878"/>
<path d="M26.542 85.5H21.542C20.8517 85.5 20.292 86.0597 20.292 86.75C20.292 87.4403 20.8517 88 21.542 88H26.542C27.2323 88 27.792 87.4403 27.792 86.75C27.792 86.0597 27.2323 85.5 26.542 85.5Z" fill="#5D6878"/>
<path d="M15.6576 18.3656C15.4248 18.5984 15.292 18.9219 15.292 19.25C15.292 19.5781 15.4248 19.9016 15.6576 20.1344C15.8904 20.3672 16.2123 20.5 16.542 20.5C16.8717 20.5 17.1936 20.3672 17.4264 20.1344C17.6592 19.9016 17.792 19.5797 17.792 19.25C17.792 18.9203 17.6592 18.5984 17.4264 18.3656C17.1936 18.1328 16.8717 18 16.542 18C16.2123 18 15.8904 18.1328 15.6576 18.3656Z" fill="#5D6878"/>
<path d="M27.792 34.25H35.292C35.9823 34.25 36.542 33.6903 36.542 33C36.542 32.3097 35.9823 31.75 35.292 31.75H27.792C27.1017 31.75 26.542 32.3097 26.542 33C26.542 33.6903 27.1017 34.25 27.792 34.25Z" fill="#5D6878"/>
<path d="M60.292 31.75H40.292C39.6017 31.75 39.042 32.3097 39.042 33C39.042 33.6903 39.6017 34.25 40.292 34.25H60.292C60.9823 34.25 61.542 33.6903 61.542 33C61.542 32.3097 60.9823 31.75 60.292 31.75Z" fill="#5D6878"/>
<path d="M60.292 38H52.792C52.1017 38 51.542 38.5597 51.542 39.25C51.542 39.9403 52.1017 40.5 52.792 40.5H60.292C60.9823 40.5 61.542 39.9403 61.542 39.25C61.542 38.5597 60.9823 38 60.292 38Z" fill="#5D6878"/>
<path d="M27.792 40.5H47.792C48.4823 40.5 49.042 39.9403 49.042 39.25C49.042 38.5597 48.4823 38 47.792 38H27.792C27.1017 38 26.542 38.5597 26.542 39.25C26.542 39.9403 27.1017 40.5 27.792 40.5Z" fill="#5D6878"/>
<path d="M60.292 25.5H27.792C27.1017 25.5 26.542 26.0597 26.542 26.75C26.542 27.4403 27.1017 28 27.792 28H60.292C60.9823 28 61.542 27.4403 61.542 26.75C61.542 26.0597 60.9823 25.5 60.292 25.5Z" fill="#5D6878"/>
<path d="M60.292 44.25H27.792C27.1017 44.25 26.542 44.8097 26.542 45.5C26.542 46.1903 27.1017 46.75 27.792 46.75H60.292C60.9823 46.75 61.542 46.1903 61.542 45.5C61.542 44.8097 60.9823 44.25 60.292 44.25Z" fill="#5D6878"/>
<path d="M60.292 18H27.792C22.9673 18 19.042 21.9253 19.042 26.75V45.5C19.042 49.9005 22.3071 53.5527 26.542 54.1609V58.7322C26.542 59.747 27.1478 60.6536 28.0853 61.0419C28.3965 61.1708 28.722 61.2334 29.0446 61.2334C29.6939 61.2334 30.3304 60.9794 30.8098 60.5L37.0598 54.25H60.292C65.1167 54.25 69.042 50.3247 69.042 45.5V26.75C69.042 21.9253 65.1167 18 60.292 18ZM66.542 45.5C66.542 48.9463 63.7382 51.75 60.292 51.75H36.542C36.2104 51.75 35.8925 51.8817 35.6581 52.1161L29.042 58.7313V53C29.042 52.3097 28.4823 51.75 27.792 51.75C24.3457 51.75 21.542 48.9463 21.542 45.5V26.75C21.542 23.3038 24.3457 20.5 27.792 20.5H60.292C63.7382 20.5 66.542 23.3038 66.542 26.75V45.5Z" fill="#5D6878"/>
</svg>
