<svg width="87" height="83" viewBox="0 0 87 83" fill="none" xmlns="http://www.w3.org/2000/svg">
<circle opacity="0.4" cx="71" cy="16.0005" r="16" fill="#D9F4FF"/>
<path d="M72.4 41.8005H71.2V22.6005C71.1694 20.6267 69.5739 19.0355 67.6 19.0103V16.6005C67.5953 15.0799 66.6342 13.7268 65.2 13.2216V10.6005C65.1978 8.61317 63.5873 7.00267 61.6 7.00049H18.4C16.4127 7.00267 14.8022 8.61317 14.8 10.6005V13.2216C13.3658 13.7268 12.4047 15.0799 12.4 16.6005V19.0103C10.4261 19.0355 8.83056 20.6267 8.8 22.6005V41.8005H7.6C5.61268 41.8027 4.00218 43.4132 4 45.4005V73.0005C4.0039 76.3126 6.68791 78.9966 10 79.0005H70C73.3121 78.9966 75.9961 76.3126 76 73.0005V45.4005C75.9978 43.4132 74.3873 41.8027 72.4 41.8005ZM72.4 44.2005C73.0625 44.2011 73.5994 44.738 73.6 45.4005V55.0005H71.2V44.2005H72.4ZM17.2 10.6005C17.2006 9.93799 17.7375 9.40108 18.4 9.40049H61.6C62.2625 9.40108 62.7994 9.93799 62.8 10.6005V13.0005H17.2V10.6005ZM14.8 16.6005C14.8006 15.938 15.3375 15.4011 16 15.4005H64C64.6625 15.4011 65.1994 15.938 65.2 16.6005V19.0005H14.8V16.6005ZM11.2 22.6005C11.2292 21.9108 11.8104 21.3744 12.5002 21.4005H67.4998C68.1896 21.3744 68.7708 21.9108 68.8 22.6005V55.0005H55.0422C54.2396 54.9995 53.4898 55.4008 53.0453 56.0692L48.9578 62.2005H31.0418L26.9542 56.0692C26.5098 55.401 25.7603 54.9997 24.9578 55.0005H11.2V22.6005ZM7.6 44.2005H8.8V55.0005H6.4V45.4005C6.4006 44.738 6.93751 44.2011 7.6 44.2005ZM73.6 73.0005C73.5978 74.9878 71.9873 76.5983 70 76.6005H10C8.01268 76.5983 6.40218 74.9878 6.4 73.0005V57.4005H24.9578L29.0453 63.5318C29.4898 64.2002 30.2396 64.6014 31.0422 64.6005H48.9582C49.7609 64.6014 50.5107 64.2002 50.9552 63.5318L55.0422 57.4005H73.6V73.0005Z" fill="#5D6878"/>
<path d="M17.2 31.0006H32.8C33.4627 31.0006 34 30.4633 34 29.8006C34 29.1378 33.4627 28.6006 32.8 28.6006H17.2C16.5373 28.6006 16 29.1378 16 29.8006C16 30.4633 16.5373 31.0006 17.2 31.0006Z" fill="#5D6878"/>
<path d="M17.2 37.0006H46C46.6627 37.0006 47.2 36.4633 47.2 35.8006C47.2 35.1378 46.6627 34.6006 46 34.6006H17.2C16.5373 34.6006 16 35.1378 16 35.8006C16 36.4633 16.5373 37.0006 17.2 37.0006Z" fill="#5D6878"/>
<path d="M17.2 43.0006H32.8C33.4627 43.0006 34 42.4633 34 41.8006C34 41.1378 33.4627 40.6006 32.8 40.6006H17.2C16.5373 40.6006 16 41.1378 16 41.8006C16 42.4633 16.5373 43.0006 17.2 43.0006Z" fill="#5D6878"/>
</svg>
