<svg width="88" height="100" viewBox="0 0 88 100" fill="none" xmlns="http://www.w3.org/2000/svg">
<circle opacity="0.4" cx="58" cy="15.9995" r="16" fill="#D9F4FF"/>
<g filter="url(#filter0_d_2290_5630)">
<path d="M26.6369 31.7168C27.3628 31.0091 27.6192 29.9705 27.306 29.0063C26.9927 28.0423 26.1747 27.3528 25.1716 27.207L22.4626 26.8132C22.3648 26.799 22.2804 26.7376 22.2367 26.649L21.0251 24.1942C20.0937 22.2416 17.2142 22.2422 16.2833 24.1942L15.0718 26.649C15.028 26.7376 14.9436 26.7989 14.8457 26.8132L12.1368 27.207C11.1335 27.3528 10.3157 28.0421 10.0025 29.0063C9.68919 29.9705 9.94559 31.0091 10.6715 31.7168L12.6316 33.6275C12.7024 33.6966 12.7348 33.796 12.718 33.8933L12.2552 36.5914C12.0838 37.5906 12.487 38.5814 13.3071 39.1773C14.1274 39.7732 15.1944 39.8502 16.0914 39.3785L18.5145 38.1046C18.6022 38.0589 18.7064 38.0587 18.7939 38.1046L21.2168 39.3784C22.1106 39.8487 23.1788 39.7748 24.0012 39.1771C24.8213 38.5814 25.2244 37.5904 25.053 36.5912L24.5902 33.8933C24.5735 33.7958 24.6058 33.6964 24.6765 33.6274L26.6369 31.7168ZM23.0407 31.9493C22.4176 32.5568 22.1332 33.4316 22.2804 34.2895L22.7432 36.9875C22.7693 37.1395 22.6926 37.2311 22.6237 37.2811C22.5548 37.3311 22.444 37.3756 22.3074 37.3039L19.8847 36.0301C19.1144 35.625 18.1944 35.625 17.4241 36.0301L15.0011 37.3039C14.8644 37.3757 14.7536 37.3311 14.6849 37.2811C14.616 37.2311 14.5393 37.1395 14.5654 36.9875L15.0282 34.2892C15.1752 33.4314 14.891 32.5568 14.2677 31.9491L12.3074 30.0384C12.197 29.9307 12.2052 29.8115 12.2315 29.7305C12.2577 29.6496 12.3212 29.5484 12.4738 29.5262L15.1827 29.1324C16.0441 29.0073 16.7883 28.4667 17.1735 27.6862L18.385 25.2314C18.5066 25.0026 18.8017 25.0025 18.9234 25.2314L20.135 27.686C20.5201 28.4667 21.2643 29.0073 22.1257 29.1324L24.8347 29.5262C24.9874 29.5484 25.0508 29.6496 25.0771 29.7305C25.1033 29.8115 25.1116 29.9307 25.0012 30.0384L23.0407 31.9493Z" fill="#5D6878"/>
<path d="M10.6714 50.9645L12.6317 52.8753C12.7025 52.9442 12.7347 53.0435 12.718 53.1409L12.2551 55.8391C12.0837 56.8383 12.4869 57.8291 13.307 58.425C14.1273 59.0208 15.1942 59.098 16.0915 58.6263L18.5144 57.3524C18.6021 57.3064 18.7065 57.3063 18.7938 57.3524L21.2169 58.6263C21.6072 58.8314 22.0295 58.9328 22.4497 58.9328C22.9956 58.9328 23.5378 58.7617 24.0012 58.425C24.8214 57.8292 25.2245 56.8383 25.0531 55.8391L24.5903 53.1412C24.5736 53.0437 24.6059 52.9443 24.6767 52.8754L26.6368 50.9647C27.3627 50.257 27.6191 49.2186 27.3059 48.2544C26.9926 47.2902 26.1748 46.6008 25.1715 46.4549L22.4625 46.0611C22.3647 46.0469 22.2803 45.9855 22.2366 45.8969L21.025 43.4423C20.0936 41.4896 17.2141 41.4903 16.2832 43.4423L15.0717 45.8971C15.0279 45.9857 14.9435 46.0469 14.8456 46.0613L12.1367 46.455C11.1334 46.6008 10.3156 47.2903 10.0024 48.2545C9.68925 49.2184 9.94565 50.2569 10.6714 50.9645ZM12.2316 48.9786C12.2578 48.8975 12.3212 48.7964 12.4739 48.7742L15.1828 48.3805C16.0442 48.2553 16.7884 47.7147 17.1735 46.9342L18.3851 44.4796C18.5066 44.2508 18.8018 44.2507 18.9235 44.4796L20.135 46.9342C20.5202 47.7149 21.2644 48.2555 22.1258 48.3806L24.8347 48.7744C24.9873 48.7966 25.0507 48.8978 25.077 48.9787C25.1032 49.0597 25.1115 49.1787 25.0011 49.2864L23.0409 51.1972C22.4177 51.8046 22.1334 52.6793 22.2805 53.5374L22.7433 56.2355C22.7694 56.3875 22.6927 56.4791 22.6237 56.5291C22.5548 56.5791 22.4441 56.6236 22.3077 56.5519L19.8846 55.278C19.1143 54.873 18.1943 54.873 17.424 55.278L15.001 56.5519C14.8643 56.6236 14.7535 56.5791 14.6848 56.5291C14.6159 56.4791 14.5392 56.3875 14.5653 56.2355L15.0281 53.5373C15.1751 52.6795 14.8909 51.8046 14.2678 51.1972L12.3075 49.2864C12.197 49.1786 12.2051 49.0595 12.2316 48.9786Z" fill="#5D6878"/>
<path d="M26.6368 70.2117C28.2062 68.7227 27.3157 65.9841 25.1715 65.7019L22.4625 65.3084C22.3648 65.2941 22.2803 65.2327 22.2366 65.1441L21.025 62.6893C20.0936 60.7367 17.2141 60.7373 16.2832 62.6893L15.0717 65.1441C15.0279 65.2327 14.9435 65.2941 14.8456 65.3084L12.1367 65.7019C9.99189 65.9843 9.10268 68.7231 10.6714 70.2117L12.6315 72.1225C12.7023 72.1915 12.7347 72.2909 12.7179 72.3883L12.2551 75.0863C12.0837 76.0855 12.4868 77.0763 13.307 77.6722C14.1273 78.268 15.1942 78.3452 16.0915 77.8735L18.5144 76.5996C18.6021 76.5537 18.7064 76.5535 18.7938 76.5996L21.2169 77.8735C22.1106 78.3438 23.1789 78.2699 24.0012 77.6722C24.8214 77.0765 25.2245 76.0855 25.0531 75.0863L24.5903 72.3884C24.5735 72.2909 24.6059 72.1915 24.6765 72.1225L26.6368 70.2117ZM23.0406 70.4444C22.4175 71.0519 22.1333 71.9267 22.2803 72.7847L22.7431 75.4826C22.7692 75.6346 22.6925 75.7262 22.6236 75.7762C22.5547 75.8262 22.4439 75.8707 22.3075 75.799L19.8844 74.5251C19.1141 74.1201 18.1941 74.1201 17.4238 74.5251L15.0009 75.799C14.8642 75.8707 14.7534 75.8262 14.6846 75.7762C14.6157 75.7262 14.539 75.6346 14.5651 75.4826L15.0279 72.7843C15.1749 71.9265 14.8907 71.0517 14.2674 70.4442L12.3072 68.5335C12.1967 68.4258 12.205 68.3066 12.2312 68.2257C12.2575 68.1446 12.3209 68.0435 12.4736 68.0213L15.1824 67.6277C16.0438 67.5025 16.788 66.9619 17.1732 66.1815L18.3847 63.7267C18.5063 63.4979 18.8014 63.4978 18.9232 63.7267L20.1347 66.1813C20.5199 66.9619 21.2641 67.5025 22.1255 67.6277L24.8343 68.0213C24.987 68.0435 25.0504 68.1447 25.0767 68.2257C25.1029 68.3066 25.1112 68.4258 25.0007 68.5335L23.0406 70.4444Z" fill="#5D6878"/>
<path d="M33.0015 54.5981H39.2887C40.838 54.5502 40.8369 52.3019 39.2887 52.2544H33.0015C31.4521 52.3025 31.4532 54.5506 33.0015 54.5981Z" fill="#5D6878"/>
<path d="M39.2887 73.7129C40.838 73.6649 40.8369 71.4166 39.2887 71.3691H33.0015C31.4521 71.4171 31.4532 73.6654 33.0015 73.7129H39.2887Z" fill="#5D6878"/>
<path d="M83.8806 81.6873L82.4565 76.4944C82.1454 75.36 81.2709 74.5313 80.2181 74.2194C81.5178 71.8948 81.87 69.1464 81.1426 66.4937L78.8902 58.2804C78.7189 57.6562 78.0736 57.2889 77.45 57.4601C76.8258 57.6314 76.4586 58.2761 76.6297 58.9001L78.8822 67.1134C79.6086 69.7618 78.9398 72.5329 77.0988 74.5619L56.3789 80.2443C52.0159 79.0536 48.003 75.3205 47.963 75.2828C47.9344 75.256 47.9045 75.2305 47.8734 75.2066C46.1333 73.8694 44.89 72.0484 44.2782 69.9398L42.4202 63.5366C42.2969 63.1121 42.4299 62.6485 42.7585 62.3555C43.2835 61.8877 44.213 61.0893 45.5292 59.976L47.2789 66.3559C47.448 66.9853 48.1117 67.3479 48.719 67.1762C49.3432 67.0051 49.7104 66.3603 49.5393 65.7363L46.6639 55.2509C46.6639 55.2508 46.6638 55.2505 46.6638 55.2503L42.5437 40.2265C42.1626 38.8366 42.9832 37.3959 44.373 37.0148C45.7627 36.6332 47.2036 37.4543 47.5845 38.844L51.0621 51.5252L52.4974 56.7595C52.6665 57.3889 53.3302 57.7515 53.9376 57.5798C54.5618 57.4087 54.929 56.7639 54.7579 56.1398L53.323 50.9077C52.9488 49.5221 53.7701 48.0862 55.1544 47.7065C56.5442 47.3254 57.9847 48.1462 58.3656 49.5355L58.7231 50.8393L59.9826 55.4327C60.1517 56.062 60.8154 56.4247 61.4228 56.253C62.047 56.0819 62.4142 55.437 62.2431 54.813L60.9901 50.2438C60.2842 46.8997 65.0432 45.6869 66.0488 48.9393L66.5777 50.868L67.6569 54.8033C67.826 55.4327 68.4897 55.7953 69.097 55.6236C69.7212 55.4523 70.0884 54.8077 69.9173 54.1836L68.8381 50.2484C68.457 48.8587 69.2775 47.4181 70.6672 47.037C71.3401 46.8525 72.0448 46.9409 72.6515 47.2864C73.2581 47.6318 73.6938 48.1928 73.8782 48.866L75.2143 53.7377C75.3855 54.3617 76.0296 54.7291 76.6544 54.558C77.2785 54.3869 77.6457 53.7421 77.4746 53.118L76.1386 48.2463C75.7885 46.9695 74.9621 45.9053 73.8115 45.25C72.6612 44.5945 71.3239 44.4264 70.0473 44.7769C68.9573 45.0758 68.0522 45.7181 67.4161 46.5553C66.2183 45.0451 64.1907 44.3091 62.2178 44.8502C61.0381 45.1737 60.0773 45.8864 59.4383 46.8129C57.9353 45.1636 55.1643 44.7517 53.2177 46.0253V20.0468C53.2177 15.6098 49.6081 12 45.1711 12H12.0468C7.60979 12 4 15.6098 4 20.0468V37.9204C4.04797 39.4698 6.29622 39.4687 6.34372 37.9204V20.0468C6.34372 16.9021 8.90212 14.3437 12.0468 14.3437H16.8454L17.6601 16.6281C18.106 17.8785 19.2977 18.7187 20.6252 18.7187H36.5922C37.9198 18.7187 39.1115 17.8785 39.5575 16.6281L40.3721 14.3437H45.1708C48.3155 14.3437 50.8739 16.9021 50.8739 20.0468V41.9774L49.8445 38.2238C49.1215 35.5876 46.3883 34.0312 43.7529 34.7542C41.1168 35.477 39.5603 38.2098 40.2832 40.846L42.2159 47.8935H33.0011C31.4518 47.9415 31.4529 50.1898 33.0011 50.2373H42.8587L44.8463 57.4851C43.0691 58.9828 41.8437 60.0312 41.1992 60.6059C40.2003 61.4962 39.7962 62.9029 40.1696 64.1896L40.9874 67.0081H33.0013C31.4519 67.0561 31.453 69.3043 33.0013 69.3518H41.6676L42.0277 70.5929C42.7743 73.1657 44.2858 75.3905 46.4008 77.0303C46.7139 77.3198 48.4548 78.8903 50.8742 80.3404V80.7876H6.34372V43.3853C6.29575 41.836 4.0475 41.8371 4 43.3853V83.9521C4 88.389 7.60963 91.9988 12.0466 91.9988H45.1708C49.6078 91.9988 53.2174 88.389 53.2174 83.9521V81.5757C53.4658 81.6882 53.7179 81.7962 53.973 81.8988C53.5558 82.6294 53.4169 83.519 53.6565 84.3924L55.0807 89.5853C55.5532 91.344 57.4133 92.3612 59.1119 91.8813L81.5843 85.7185C82.4293 85.4867 83.1337 84.9397 83.5673 84.1783C84.0012 83.4171 84.1124 82.5323 83.8806 81.6873ZM37.35 15.8407C37.2361 16.1603 36.9314 16.3749 36.5922 16.3749H20.6252C20.286 16.3749 19.9815 16.1603 19.8674 15.8407L19.3337 14.3437H37.8839L37.35 15.8407ZM45.1708 89.6551H12.0468C8.90212 89.6551 6.34372 87.0967 6.34372 83.9521V83.1313H50.8739V83.9521C50.8739 87.0967 48.3155 89.6551 45.1708 89.6551ZM81.5309 83.0185C81.407 83.236 81.2059 83.3922 80.9647 83.4583L58.4922 89.6212C57.9944 89.7579 57.4775 89.4636 57.3409 88.9654L55.9169 83.7727C55.7802 83.2744 56.0744 82.7579 56.5725 82.6213L79.045 76.4584C79.5302 76.3216 80.0612 76.612 80.1962 77.1142L81.6203 82.3071C81.6864 82.5485 81.6547 82.8012 81.5309 83.0185Z" fill="#5D6878"/>
</g>
<defs>
<filter id="filter0_d_2290_5630" x="0" y="12" width="87.999" height="88" filterUnits="userSpaceOnUse" color-interpolation-filters="sRGB">
<feFlood flood-opacity="0" result="BackgroundImageFix"/>
<feColorMatrix in="SourceAlpha" type="matrix" values="0 0 0 0 0 0 0 0 0 0 0 0 0 0 0 0 0 0 127 0" result="hardAlpha"/>
<feOffset dy="4"/>
<feGaussianBlur stdDeviation="2"/>
<feComposite in2="hardAlpha" operator="out"/>
<feColorMatrix type="matrix" values="0 0 0 0 0 0 0 0 0 0 0 0 0 0 0 0 0 0 0.25 0"/>
<feBlend mode="normal" in2="BackgroundImageFix" result="effect1_dropShadow_2290_5630"/>
<feBlend mode="normal" in="SourceGraphic" in2="effect1_dropShadow_2290_5630" result="shape"/>
</filter>
</defs>
</svg>
