<svg width="86" height="82" viewBox="0 0 86 82" fill="none" xmlns="http://www.w3.org/2000/svg">
<ellipse opacity="0.4" cx="72.5" cy="13" rx="13.5" ry="13" fill="#D9F4FF"/>
<path d="M18.75 58.25C15.9925 58.25 13.75 60.4925 13.75 63.25C13.75 66.0075 15.9925 68.25 18.75 68.25C21.5075 68.25 23.75 66.0075 23.75 63.25C23.75 60.4925 21.5075 58.25 18.75 58.25ZM18.75 65.75C17.3712 65.75 16.25 64.6287 16.25 63.25C16.25 61.8712 17.3712 60.75 18.75 60.75C20.1287 60.75 21.25 61.8712 21.25 63.25C21.25 64.6287 20.1287 65.75 18.75 65.75Z" fill="#5D6878"/>
<path d="M18.75 53.25C13.2363 53.25 8.75 57.7363 8.75 63.25C8.75 68.7638 13.2363 73.25 18.75 73.25C24.2638 73.25 28.75 68.7638 28.75 63.25C28.75 57.7363 24.2638 53.25 18.75 53.25ZM18.75 70.75C14.6137 70.75 11.25 67.3862 11.25 63.25C11.25 59.1137 14.6137 55.75 18.75 55.75C22.8862 55.75 26.25 59.1137 26.25 63.25C26.25 67.3862 22.8862 70.75 18.75 70.75Z" fill="#5D6878"/>
<path d="M79.5037 59.4188L76.25 57.0325V36.515L72.395 37.8C71.5 38.0987 70.5687 38.25 69.6275 38.25C67.765 38.25 66.25 36.735 66.25 34.8737V31.6263C66.25 29.765 67.765 28.25 69.6262 28.25C70.57 28.25 71.5012 28.4012 72.3962 28.6987L76.25 29.9862V17C76.25 14.9325 74.5675 13.25 72.5 13.25H62.985L63.41 11.9738C63.635 11.2975 63.75 10.5925 63.75 9.87625C63.75 6.2225 60.7775 3.25 57.1225 3.25H55.3775C51.7225 3.25 48.75 6.22375 48.75 9.87875C48.75 10.5925 48.865 11.2987 49.09 11.9738L49.515 13.25H42.5C41.5362 13.25 40.665 13.6263 40 14.225C39.335 13.6263 38.4637 13.25 37.5 13.25H27.985L28.41 11.9738C28.635 11.2975 28.75 10.5925 28.75 9.87625C28.75 6.2225 25.7775 3.25 22.1225 3.25H20.3775C16.7225 3.25 13.75 6.22375 13.75 9.87875C13.75 10.5925 13.865 11.2987 14.09 11.9738L14.515 13.25H7.5C5.4325 13.25 3.75 14.9325 3.75 17V53.5L2.84 54.41L4.54375 56.1163C5.09125 56.6638 4.89 57.2962 4.81625 57.4788C4.74125 57.6588 4.43625 58.25 3.66125 58.25H1.25V68.25H3.66125C4.43625 68.25 4.74125 68.8413 4.8175 69.0213C4.8925 69.2038 5.09375 69.835 4.54375 70.3838L2.84125 72.09L9.91 79.1588L11.6163 77.455C12.1662 76.9062 12.7963 77.11 12.9788 77.1825C13.1588 77.2588 13.75 77.5638 13.75 78.3388V80.75H23.75V78.3388C23.75 77.5638 24.3412 77.2588 24.5212 77.1825C24.7025 77.1087 25.3337 76.9025 25.8837 77.4563L27.59 79.1588L34.6587 72.09L32.955 70.3838C32.4075 69.8363 32.6087 69.2038 32.6825 69.0213C32.7587 68.8413 33.0637 68.25 33.8387 68.25H35H36.25H57.5V78.4875L79.5037 59.4188ZM42.5 15.75H52.985L51.4612 11.1825C51.3212 10.7613 51.25 10.3225 51.25 9.87875C51.25 7.60125 53.1012 5.75 55.3775 5.75H57.1225C59.3988 5.75 61.25 7.60125 61.25 9.8775C61.25 10.3225 61.1787 10.7613 61.0387 11.1825L59.515 15.75H72.5C73.19 15.75 73.75 16.31 73.75 17V26.5163L73.1875 26.3287C72.0375 25.9437 70.84 25.75 69.6262 25.75C66.3862 25.75 63.75 28.3863 63.75 31.6263V34.8737C63.75 38.1138 66.3862 40.75 69.6275 40.75C70.8387 40.75 72.035 40.5563 73.1837 40.1738L73.75 39.985V55.2L57.5 43.2838V53.25H41.25V39.985L41.8137 40.1725C42.9637 40.5575 44.1612 40.7513 45.3737 40.7513C48.615 40.75 51.25 38.1138 51.25 34.8737V31.6275C51.25 30.0575 50.6387 28.58 49.5288 27.4713C48.4188 26.3625 46.9437 25.7512 45.375 25.7512H45.3725C44.1613 25.7512 42.965 25.945 41.815 26.3287L41.25 26.5163V17C41.25 16.31 41.81 15.75 42.5 15.75ZM6.25 17C6.25 16.31 6.81 15.75 7.5 15.75H17.985L16.4612 11.1825C16.3212 10.7613 16.25 10.3225 16.25 9.87875C16.25 7.60125 18.1012 5.75 20.3775 5.75H22.1225C24.3987 5.75 26.25 7.60125 26.25 9.8775C26.25 10.3225 26.1787 10.7613 26.0387 11.1825L24.515 15.75H37.5C38.19 15.75 38.75 16.31 38.75 17V29.9862L42.605 28.7013C43.5 28.4038 44.4313 28.2525 45.3725 28.2525H45.375C46.2762 28.2525 47.1237 28.6025 47.7612 29.2412C48.3987 29.8787 48.75 30.7262 48.75 31.6287V34.875C48.75 36.7363 47.235 38.2513 45.3737 38.2525C44.4312 38.2525 43.5 38.1012 42.605 37.8025L38.75 36.5175V53.25H33.5L27.59 47.34L25.8837 49.0437C25.335 49.5925 24.7025 49.3875 24.5212 49.3162C24.3412 49.2412 23.75 48.9363 23.75 48.1613V45.75H13.75V48.1613C13.75 48.9363 13.1588 49.2413 12.9788 49.3175C12.7963 49.39 12.1675 49.5962 11.6163 49.0437L9.91 47.3412L6.25 51V17ZM33.75 65.7513C32.2425 65.7838 30.9537 66.6637 30.3737 68.0663C29.7937 69.4662 30.0837 71 31.1262 72.0888L27.5887 75.6263C26.4987 74.5825 24.9675 74.295 23.5662 74.8737C22.165 75.4525 21.2837 76.7425 21.2512 78.25H16.2487C16.2162 76.7425 15.3362 75.4538 13.9337 74.8737C12.5325 74.295 11 74.585 9.91125 75.6263L6.375 72.0875C7.4175 70.9987 7.70625 69.465 7.1275 68.065C6.54625 66.6638 5.2575 65.7838 3.75 65.7513V60.7487C5.2575 60.7163 6.54625 59.8363 7.12625 58.4338C7.70625 57.0338 7.41625 55.5 6.37375 54.4113L9.91125 50.8737C11.0012 51.9163 12.5312 52.205 13.9337 51.6263C15.335 51.0463 16.215 49.7575 16.2487 48.25H21.2512C21.2837 49.7575 22.1637 51.0463 23.5662 51.6263C24.97 52.2075 26.5025 51.915 27.5887 50.8737L31.1262 54.4113C30.0837 55.5 29.795 57.0338 30.3737 58.4338C30.9537 59.835 32.2425 60.715 33.75 60.7487V65.7513ZM36.25 65.75V58.25H33.8387C33.0637 58.25 32.7587 57.6588 32.6825 57.4788C32.6075 57.2962 32.4062 56.665 32.9562 56.1163L33.3225 55.75H60V48.2175L75.4962 59.5825L60 73.0125V65.75H36.25Z" fill="#5D6878"/>
<path d="M16.25 32C16.25 29.9325 14.5675 28.25 12.5 28.25C10.4325 28.25 8.75 29.9325 8.75 32C8.75 34.0675 10.4325 35.75 12.5 35.75C14.5675 35.75 16.25 34.0675 16.25 32ZM11.25 32C11.25 31.31 11.81 30.75 12.5 30.75C13.19 30.75 13.75 31.31 13.75 32C13.75 32.69 13.19 33.25 12.5 33.25C11.81 33.25 11.25 32.69 11.25 32Z" fill="#5D6878"/>
<path d="M22.5 35.75C24.5675 35.75 26.25 34.0675 26.25 32C26.25 29.9325 24.5675 28.25 22.5 28.25C20.4325 28.25 18.75 29.9325 18.75 32C18.75 34.0675 20.4325 35.75 22.5 35.75ZM22.5 30.75C23.19 30.75 23.75 31.31 23.75 32C23.75 32.69 23.19 33.25 22.5 33.25C21.81 33.25 21.25 32.69 21.25 32C21.25 31.31 21.81 30.75 22.5 30.75Z" fill="#5D6878"/>
<path d="M32.5 35.75C34.5675 35.75 36.25 34.0675 36.25 32C36.25 29.9325 34.5675 28.25 32.5 28.25C30.4325 28.25 28.75 29.9325 28.75 32C28.75 34.0675 30.4325 35.75 32.5 35.75ZM32.5 30.75C33.19 30.75 33.75 31.31 33.75 32C33.75 32.69 33.19 33.25 32.5 33.25C31.81 33.25 31.25 32.69 31.25 32C31.25 31.31 31.81 30.75 32.5 30.75Z" fill="#5D6878"/>
</svg>
