<svg width="18" height="17" viewBox="0 0 18 17" fill="none" xmlns="http://www.w3.org/2000/svg">
<g style="mix-blend-mode:multiply" opacity="0.5">
<path d="M8.92355 1.27651C8.98973 1.27651 9.08239 1.35665 9.14857 1.50357L11.0017 5.12309C11.1548 5.38648 11.3593 5.61579 11.6027 5.79716C11.8462 5.97852 12.1236 6.10816 12.4181 6.17823L16.3892 6.85939C16.4444 6.86344 16.4981 6.87994 16.5462 6.90768C16.5943 6.93542 16.6356 6.97368 16.6672 7.01966C16.6672 7.01966 16.6672 7.1933 16.5348 7.3135L13.6888 10.2118C13.4864 10.4386 13.3325 10.7051 13.2368 10.9947C13.1411 11.2843 13.1058 11.5907 13.1329 11.8947L13.7153 15.9015C13.7476 15.9968 13.7476 16.1001 13.7153 16.1953C13.6966 16.2038 13.6763 16.2082 13.6558 16.2082C13.6352 16.2082 13.6149 16.2038 13.5962 16.1953C13.5045 16.2148 13.4099 16.2148 13.3182 16.1953L9.74424 14.3656C9.46626 14.2369 9.16314 14.173 8.85736 14.1786C8.55742 14.1753 8.26003 14.2344 7.98372 14.3522L4.3568 16.1953C4.29152 16.2321 4.21941 16.2548 4.14501 16.2621C4.12591 16.2579 4.10786 16.2497 4.09194 16.2383C4.07602 16.2268 4.06256 16.2122 4.05235 16.1953C4.0141 16.1012 4.0141 15.9957 4.05235 15.9015L4.66125 11.8947C4.69545 11.5903 4.666 11.2821 4.5748 10.9899C4.48359 10.6977 4.33267 10.4281 4.13177 10.1984L1.24612 7.24672C1.14023 7.12651 1.08728 7.01966 1.11375 6.95288C1.15177 6.91493 1.19749 6.88572 1.24776 6.86728C1.29803 6.84883 1.35166 6.84159 1.40496 6.84603L5.37605 6.19158C5.67189 6.12929 5.95169 6.00572 6.19777 5.8287C6.44384 5.65167 6.65083 5.42505 6.80564 5.16316L8.68528 1.50357C8.75147 1.35665 8.84413 1.27651 8.92355 1.27651ZM8.92355 1.07617C8.83071 1.08655 8.74276 1.12351 8.67005 1.18267C8.59735 1.24183 8.54293 1.32073 8.5132 1.41008L6.69974 5.01624C6.55564 5.25506 6.36329 5.46056 6.13521 5.61934C5.90714 5.77813 5.64846 5.88665 5.37605 5.93782L1.40496 6.60562C0.915197 6.68576 0.809302 7.03302 1.14023 7.38028L3.95969 10.3053C4.13934 10.5123 4.2754 10.7541 4.35959 11.0158C4.44378 11.2776 4.47436 11.5538 4.44946 11.8279L3.82732 15.8347C3.82732 16.1953 3.91998 16.409 4.18472 16.409C4.29049 16.4031 4.394 16.3758 4.48917 16.3289L8.02343 14.5392C8.26848 14.4271 8.53545 14.3723 8.80441 14.3789C9.07763 14.3726 9.34884 14.4273 9.59863 14.5392L13.3182 16.3823C13.4124 16.432 13.5165 16.4594 13.6227 16.4625C13.8874 16.4625 14.033 16.2488 13.9801 15.9015L13.3976 11.8947C13.3768 11.623 13.4093 11.3498 13.4934 11.0908C13.5774 10.8318 13.7113 10.5921 13.8874 10.3854L16.7333 7.48713C17.0775 7.13987 16.9716 6.79261 16.4818 6.71247L12.5108 6.01795C12.2364 5.96291 11.9766 5.84997 11.7485 5.68655C11.5204 5.52312 11.329 5.3129 11.1871 5.06966L9.34713 1.41008C9.228 1.19638 9.08239 1.07617 8.93678 1.07617H8.92355Z" fill="url(#paint0_radial_1_2940)" style="mix-blend-mode:multiply"/>
<path d="M8.92355 1.27651C8.98973 1.27651 9.08239 1.35665 9.14857 1.50357L11.0017 5.12309C11.1548 5.38648 11.3593 5.61579 11.6027 5.79716C11.8462 5.97852 12.1236 6.10816 12.4181 6.17823L16.3892 6.85939C16.4444 6.86344 16.4981 6.87994 16.5462 6.90768C16.5943 6.93542 16.6356 6.97368 16.6672 7.01966C16.6672 7.01966 16.6672 7.1933 16.5348 7.3135L13.6888 10.2118C13.4864 10.4386 13.3325 10.7051 13.2368 10.9947C13.1411 11.2843 13.1058 11.5907 13.1329 11.8947L13.7153 15.9015C13.7476 15.9968 13.7476 16.1001 13.7153 16.1953C13.6966 16.2038 13.6763 16.2082 13.6558 16.2082C13.6352 16.2082 13.6149 16.2038 13.5962 16.1953C13.5045 16.2148 13.4099 16.2148 13.3182 16.1953L9.74424 14.3656C9.46626 14.2369 9.16314 14.173 8.85736 14.1786C8.55742 14.1753 8.26003 14.2344 7.98372 14.3522L4.3568 16.1953C4.29152 16.2321 4.21941 16.2548 4.14501 16.2621C4.12591 16.2579 4.10786 16.2497 4.09194 16.2383C4.07602 16.2268 4.06256 16.2122 4.05235 16.1953C4.0141 16.1012 4.0141 15.9957 4.05235 15.9015L4.66125 11.8947C4.69545 11.5903 4.666 11.2821 4.5748 10.9899C4.48359 10.6977 4.33267 10.4281 4.13177 10.1984L1.24612 7.24672C1.14023 7.12651 1.08728 7.01966 1.11375 6.95288C1.15177 6.91493 1.19749 6.88572 1.24776 6.86728C1.29803 6.84883 1.35166 6.84159 1.40496 6.84603L5.37605 6.19158C5.67189 6.12929 5.95169 6.00572 6.19777 5.8287C6.44384 5.65167 6.65083 5.42505 6.80564 5.16316L8.68528 1.50357C8.75147 1.35665 8.84413 1.27651 8.92355 1.27651ZM8.92355 1.07617C8.83071 1.08655 8.74276 1.12351 8.67005 1.18267C8.59735 1.24183 8.54293 1.32073 8.5132 1.41008L6.69974 5.01624C6.55564 5.25506 6.36329 5.46056 6.13521 5.61934C5.90714 5.77813 5.64846 5.88665 5.37605 5.93782L1.40496 6.60562C0.915197 6.68576 0.809302 7.03302 1.14023 7.38028L3.95969 10.3053C4.13934 10.5123 4.2754 10.7541 4.35959 11.0158C4.44378 11.2776 4.47436 11.5538 4.44946 11.8279L3.82732 15.8347C3.82732 16.1953 3.91998 16.409 4.18472 16.409C4.29049 16.4031 4.394 16.3758 4.48917 16.3289L8.02343 14.5392C8.26848 14.4271 8.53545 14.3723 8.80441 14.3789C9.07763 14.3726 9.34884 14.4273 9.59863 14.5392L13.3182 16.3823C13.4124 16.432 13.5165 16.4594 13.6227 16.4625C13.8874 16.4625 14.033 16.2488 13.9801 15.9015L13.3976 11.8947C13.3768 11.623 13.4093 11.3498 13.4934 11.0908C13.5774 10.8318 13.7113 10.5921 13.8874 10.3854L16.7333 7.48713C17.0775 7.13987 16.9716 6.79261 16.4818 6.71247L12.5108 6.01795C12.2364 5.96291 11.9766 5.84997 11.7485 5.68655C11.5204 5.52312 11.329 5.3129 11.1871 5.06966L9.34713 1.41008C9.228 1.19638 9.08239 1.07617 8.93678 1.07617H8.92355Z" stroke="#FFBC08"/>
</g>
<defs>
<radialGradient id="paint0_radial_1_2940" cx="0" cy="0" r="1" gradientUnits="userSpaceOnUse" gradientTransform="translate(2.34479 20.8299) scale(24.1574 24.375)">
<stop offset="0.35" stop-color="#FFC200"/>
<stop offset="0.51" stop-color="#FFBD07"/>
<stop offset="0.72" stop-color="#FFAF19"/>
<stop offset="0.98" stop-color="#FF9737"/>
<stop offset="1" stop-color="#FF953A"/>
</radialGradient>
</defs>
</svg>
