<svg width="17" height="16" viewBox="0 0 17 16" fill="none" xmlns="http://www.w3.org/2000/svg">
<path d="M13.9278 14.9021C13.9939 15.3829 13.7027 15.5966 13.2659 15.3829L9.65223 13.5398C9.40279 13.4343 9.13506 13.38 8.86463 13.38C8.59419 13.38 8.32647 13.4343 8.07703 13.5398L4.45011 15.3428C4.01329 15.5565 3.72208 15.3428 3.78826 14.8487L4.4104 10.8418C4.4353 10.5678 4.40472 10.2915 4.32053 10.0297C4.23633 9.768 4.10028 9.52625 3.92063 9.3192L1.10116 6.38085C0.770239 6.03359 0.876134 5.68633 1.3659 5.60619L5.33698 4.93838C5.6094 4.88721 5.86808 4.7787 6.09615 4.61991C6.32423 4.46112 6.51658 4.25562 6.66068 4.01681L8.54032 0.410643C8.76535 -0.0301102 9.13599 -0.0301102 9.36101 0.410643L11.2009 4.03016C11.3429 4.2734 11.5342 4.48362 11.7624 4.64704C11.9905 4.81047 12.2502 4.9234 12.5246 4.97845L16.4957 5.67297C16.9855 5.75311 17.0914 6.10037 16.7472 6.44763L13.9013 9.34592C13.7087 9.54507 13.5578 9.78137 13.4577 10.0407C13.3577 10.3 13.3104 10.577 13.3189 10.8552L13.9278 14.9021Z" fill="url(#paint0_radial_1_2939)"/>
<defs>
<radialGradient id="paint0_radial_1_2939" cx="0" cy="0" r="1" gradientUnits="userSpaceOnUse" gradientTransform="translate(3.61618 15.65) scale(16.705 16.8555)">
<stop offset="0.35" stop-color="#FFC200"/>
<stop offset="0.51" stop-color="#FFBD07"/>
<stop offset="0.72" stop-color="#FFAF19"/>
<stop offset="0.98" stop-color="#FF9737"/>
<stop offset="1" stop-color="#FF953A"/>
</radialGradient>
</defs>
</svg>
