<svg width="17" height="16" viewBox="0 0 17 16" fill="none" xmlns="http://www.w3.org/2000/svg">
<path d="M8.46612 13.3794C8.19349 13.3794 7.92356 13.4339 7.6719 13.5397L4.05822 15.3428C3.6214 15.5565 3.31695 15.3428 3.39637 14.8486L4.00527 10.8418C4.03274 10.5686 4.00464 10.2927 3.9227 10.0308C3.84076 9.76903 3.7067 9.52685 3.52874 9.31915L0.70927 6.3808C0.36511 6.03354 0.48424 5.68628 0.96077 5.60614L4.93185 4.93833C5.20484 4.88879 5.46418 4.78093 5.69248 4.62198C5.92078 4.46304 6.11275 4.25669 6.25555 4.01676L8 0.500093C8.5 3.79086e-05 8.5 0 8.5 0L8.44629 13.2996C8.44629 13.2996 8.55046 13.1195 8.46612 13.3794C8.43908 13.1073 8.38178 13.6393 8.46612 13.3794Z" fill="url(#paint0_radial_732_2877)"/>
<path style="mix-blend-mode:multiply" opacity="0.5" d="M8.56181 0.276514C8.64123 0.276514 8.73389 0.356651 8.80008 0.503569L10.6533 4.12309C10.8063 4.38648 11.0108 4.61579 11.2542 4.79716C11.4977 4.97852 11.7751 5.10816 12.0696 5.17823L16.0407 5.85939C16.1995 5.85939 16.3054 5.95288 16.3187 6.01966C16.3319 6.08645 16.3187 6.1933 16.1863 6.3135L13.3403 9.21179C13.1395 9.43922 12.9876 9.70619 12.8942 9.99584C12.8008 10.2855 12.7679 10.5915 12.7976 10.8947L13.3801 14.9015C13.3997 14.948 13.4099 14.9979 13.4099 15.0484C13.4099 15.0989 13.3997 15.1489 13.3801 15.1953C13.3801 15.1953 13.3801 15.1953 13.2742 15.1953C13.1952 15.1899 13.1184 15.1671 13.0491 15.1286L9.35603 13.3656C9.07745 13.2469 8.77814 13.1858 8.47577 13.1858C8.17339 13.1858 7.87408 13.2469 7.59551 13.3656L3.96859 15.1953C3.8993 15.2339 3.8225 15.2567 3.74357 15.2621C3.66414 15.2621 3.63767 15.2621 3.63767 15.2621C3.61546 15.2164 3.60392 15.1661 3.60392 15.1152C3.60392 15.0643 3.61546 15.014 3.63767 14.9683L4.24657 10.9614C4.27753 10.6572 4.24654 10.3498 4.15548 10.0581C4.06443 9.76645 3.91525 9.49662 3.71709 9.26521L0.857913 6.24672C0.752017 6.12651 0.699071 6.01966 0.725545 5.95288C0.752019 5.8861 0.844677 5.81932 1.00352 5.79261L4.9746 5.13816C5.26987 5.07435 5.54905 4.95017 5.79493 4.77329C6.0408 4.59642 6.24815 4.37059 6.40419 4.10973L8.29708 0.503569C8.29708 0.356651 8.45592 0.276514 8.5221 0.276514M8.5221 0.0761719C8.3765 0.0761719 8.23089 0.183021 8.11176 0.410076L6.23211 4.01624C6.08932 4.25617 5.89734 4.46252 5.66904 4.62147C5.44074 4.78041 5.18141 4.88827 4.90842 4.93781L0.937336 5.60562C0.460806 5.68576 0.341671 6.03302 0.685831 6.38028L3.5053 9.30528C3.68326 9.51298 3.81732 9.75516 3.89926 10.017C3.9812 10.2788 4.0093 10.5547 3.98183 10.8279L3.37293 14.8347C3.37293 15.1953 3.46559 15.409 3.71709 15.409C3.82735 15.4049 3.93555 15.3776 4.03478 15.3289L7.64846 13.5258C7.89431 13.4163 8.16072 13.3616 8.42944 13.3656C8.70681 13.3607 8.98203 13.4153 9.2369 13.5258L12.8373 15.369C12.9366 15.4177 13.0448 15.445 13.155 15.4491C13.4065 15.4491 13.5521 15.2354 13.4992 14.8882L12.93 10.8813C12.903 10.6092 12.9326 10.3344 13.0169 10.0745C13.1012 9.81459 13.2385 9.57534 13.4198 9.37206L16.2657 6.47377C16.6099 6.12651 16.4907 5.77925 16.0142 5.69912L12.0431 5.0046C11.7687 4.94955 11.509 4.83661 11.2808 4.67319C11.0527 4.50977 10.8614 4.29955 10.7194 4.05631L8.86627 0.436788C8.76037 0.223089 8.61476 0.102884 8.45591 0.102884L8.5221 0.0761719Z" fill="url(#paint1_radial_732_2877)"/>
<defs>
<radialGradient id="paint0_radial_732_2877" cx="0" cy="0" r="1" gradientUnits="userSpaceOnUse" gradientTransform="translate(3.22429 15.65) scale(16.705 16.8555)">
<stop offset="0.35" stop-color="#FFC200"/>
<stop offset="0.51" stop-color="#FFBD07"/>
<stop offset="0.72" stop-color="#FFAF19"/>
<stop offset="0.98" stop-color="#FF9737"/>
<stop offset="1" stop-color="#FF953A"/>
</radialGradient>
<radialGradient id="paint1_radial_732_2877" cx="0" cy="0" r="1" gradientUnits="userSpaceOnUse" gradientTransform="translate(1.95658 19.8299) scale(24.1574 24.375)">
<stop offset="0.35" stop-color="#FFC200"/>
<stop offset="0.51" stop-color="#FFBD07"/>
<stop offset="0.72" stop-color="#FFAF19"/>
<stop offset="0.98" stop-color="#FF9737"/>
<stop offset="1" stop-color="#FF953A"/>
</radialGradient>
</defs>
</svg>
